<?xml version="1.0" encoding="UTF-8" standalone="no"?>
<svg
   xmlns:dc="http://purl.org/dc/elements/1.1/"
   xmlns:cc="http://creativecommons.org/ns#"
   xmlns:rdf="http://www.w3.org/1999/02/22-rdf-syntax-ns#"
   xmlns:svg="http://www.w3.org/2000/svg"
   xmlns="http://www.w3.org/2000/svg"
   xmlns:sodipodi="http://sodipodi.sourceforge.net/DTD/sodipodi-0.dtd"
   xmlns:inkscape="http://www.inkscape.org/namespaces/inkscape"
   version="1.1"
   id="svg2"
   xml:space="preserve"
   width="299.51999"
   height="229.632"
   viewBox="0 0 299.51999 229.632"
   sodipodi:docname="highest_educa_Figure2.svg"
   inkscape:version="1.0.1 (0767f8302a, 2020-10-17)"><metadata
     id="metadata8"><rdf:RDF><cc:Work
         rdf:about=""><dc:format>image/svg+xml</dc:format><dc:type
           rdf:resource="http://purl.org/dc/dcmitype/StillImage" /><dc:title></dc:title></cc:Work></rdf:RDF></metadata><defs
     id="defs6" /><sodipodi:namedview
     pagecolor="#ffffff"
     bordercolor="#666666"
     borderopacity="1"
     objecttolerance="10"
     gridtolerance="10"
     guidetolerance="10"
     inkscape:pageopacity="0"
     inkscape:pageshadow="2"
     inkscape:window-width="836"
     inkscape:window-height="480"
     id="namedview4"
     showgrid="false"
     inkscape:zoom="3.8235089"
     inkscape:cx="149.75999"
     inkscape:cy="114.816"
     inkscape:window-x="67"
     inkscape:window-y="27"
     inkscape:window-maximized="0"
     inkscape:current-layer="g10" /><g
     id="g10"
     inkscape:groupmode="layer"
     inkscape:label="highest_educa_Figure2"
     transform="matrix(0.00936,0,0,-0.00936,0,229.632)"><path
       d="M 0,0 H 32000 V 24533 H 0 Z"
       style="fill:#ffffff;fill-opacity:1;fill-rule:nonzero;stroke:#ffffff;stroke-width:49.066;stroke-linecap:butt;stroke-linejoin:miter;stroke-miterlimit:10;stroke-dasharray:none;stroke-opacity:1"
       id="path12" /><path
       d="M 3647,5470 H 31141 V 22300 H 3647 Z"
       style="fill:none;stroke:#000000;stroke-width:49.066;stroke-linecap:butt;stroke-linejoin:miter;stroke-miterlimit:10;stroke-dasharray:none;stroke-opacity:1"
       id="path14" /><path
       d="M 14346,5470 V 22300"
       style="fill:none;stroke:#303030;stroke-width:73.599;stroke-linecap:butt;stroke-linejoin:miter;stroke-miterlimit:10;stroke-dasharray:none;stroke-opacity:1"
       id="path16" /><path
       d="M 30601,6506 28569,6211"
       style="fill:none;stroke:#000000;stroke-width:73.599;stroke-linecap:round;stroke-linejoin:miter;stroke-miterlimit:10;stroke-dasharray:none;stroke-opacity:1"
       id="path18" /><path
       d="m 28569,6211 -2032,691"
       style="fill:none;stroke:#000000;stroke-width:73.599;stroke-linecap:round;stroke-linejoin:miter;stroke-miterlimit:10;stroke-dasharray:none;stroke-opacity:1"
       id="path20" /><path
       d="M 26537,6902 24505,6425"
       style="fill:none;stroke:#000000;stroke-width:73.599;stroke-linecap:round;stroke-linejoin:miter;stroke-miterlimit:10;stroke-dasharray:none;stroke-opacity:1"
       id="path22" /><path
       d="M 24505,6425 22473,8273"
       style="fill:none;stroke:#000000;stroke-width:73.599;stroke-linecap:round;stroke-linejoin:miter;stroke-miterlimit:10;stroke-dasharray:none;stroke-opacity:1"
       id="path24" /><path
       d="M 22473,8273 20441,7888"
       style="fill:none;stroke:#000000;stroke-width:73.599;stroke-linecap:round;stroke-linejoin:miter;stroke-miterlimit:10;stroke-dasharray:none;stroke-opacity:1"
       id="path26" /><path
       d="M 20441,7888 18409,7224"
       style="fill:none;stroke:#000000;stroke-width:73.599;stroke-linecap:round;stroke-linejoin:miter;stroke-miterlimit:10;stroke-dasharray:none;stroke-opacity:1"
       id="path28" /><path
       d="m 18409,7224 -2031,595"
       style="fill:none;stroke:#000000;stroke-width:73.599;stroke-linecap:round;stroke-linejoin:miter;stroke-miterlimit:10;stroke-dasharray:none;stroke-opacity:1"
       id="path30" /><path
       d="M 16378,7819 14346,7252"
       style="fill:none;stroke:#000000;stroke-width:73.599;stroke-linecap:round;stroke-linejoin:miter;stroke-miterlimit:10;stroke-dasharray:none;stroke-opacity:1"
       id="path32" /><path
       d="M 14346,7252 12314,9891"
       style="fill:none;stroke:#000000;stroke-width:73.599;stroke-linecap:round;stroke-linejoin:miter;stroke-miterlimit:10;stroke-dasharray:none;stroke-opacity:1"
       id="path34" /><path
       d="m 12314,9891 -2032,47"
       style="fill:none;stroke:#000000;stroke-width:73.599;stroke-linecap:round;stroke-linejoin:miter;stroke-miterlimit:10;stroke-dasharray:none;stroke-opacity:1"
       id="path36" /><path
       d="M 10282,9938 8250,12376"
       style="fill:none;stroke:#000000;stroke-width:73.599;stroke-linecap:round;stroke-linejoin:miter;stroke-miterlimit:10;stroke-dasharray:none;stroke-opacity:1"
       id="path38" /><path
       d="M 8250,12376 6218,13706"
       style="fill:none;stroke:#000000;stroke-width:73.599;stroke-linecap:round;stroke-linejoin:miter;stroke-miterlimit:10;stroke-dasharray:none;stroke-opacity:1"
       id="path40" /><path
       d="M 6218,13706 4186,12900"
       style="fill:none;stroke:#000000;stroke-width:73.599;stroke-linecap:round;stroke-linejoin:miter;stroke-miterlimit:10;stroke-dasharray:none;stroke-opacity:1"
       id="path42" /><path
       d="m 30331,6506 270,-270 270,270 -270,270 z"
       style="fill:#606060;fill-opacity:1;fill-rule:nonzero;stroke:#606060;stroke-width:73.599;stroke-linecap:butt;stroke-linejoin:miter;stroke-miterlimit:10;stroke-dasharray:none;stroke-opacity:1"
       id="path44" /><path
       d="m 28299,6211 270,-270 270,270 -270,270 z"
       style="fill:#606060;fill-opacity:1;fill-rule:nonzero;stroke:#606060;stroke-width:73.599;stroke-linecap:butt;stroke-linejoin:miter;stroke-miterlimit:10;stroke-dasharray:none;stroke-opacity:1"
       id="path46" /><path
       d="m 26267,6902 270,-270 270,270 -270,270 z"
       style="fill:#606060;fill-opacity:1;fill-rule:nonzero;stroke:#606060;stroke-width:73.599;stroke-linecap:butt;stroke-linejoin:miter;stroke-miterlimit:10;stroke-dasharray:none;stroke-opacity:1"
       id="path48" /><path
       d="m 24235,6425 270,-270 270,270 -270,270 z"
       style="fill:#606060;fill-opacity:1;fill-rule:nonzero;stroke:#606060;stroke-width:73.599;stroke-linecap:butt;stroke-linejoin:miter;stroke-miterlimit:10;stroke-dasharray:none;stroke-opacity:1"
       id="path50" /><path
       d="m 22203,8273 270,-270 270,270 -270,270 z"
       style="fill:#606060;fill-opacity:1;fill-rule:nonzero;stroke:#606060;stroke-width:73.599;stroke-linecap:butt;stroke-linejoin:miter;stroke-miterlimit:10;stroke-dasharray:none;stroke-opacity:1"
       id="path52" /><path
       d="m 20171,7888 270,-270 270,270 -270,270 z"
       style="fill:#606060;fill-opacity:1;fill-rule:nonzero;stroke:#606060;stroke-width:73.599;stroke-linecap:butt;stroke-linejoin:miter;stroke-miterlimit:10;stroke-dasharray:none;stroke-opacity:1"
       id="path54" /><path
       d="m 18139,7224 270,-270 270,270 -270,270 z"
       style="fill:#606060;fill-opacity:1;fill-rule:nonzero;stroke:#606060;stroke-width:73.599;stroke-linecap:butt;stroke-linejoin:miter;stroke-miterlimit:10;stroke-dasharray:none;stroke-opacity:1"
       id="path56" /><path
       d="m 16108,7819 270,-270 270,270 -270,270 z"
       style="fill:#606060;fill-opacity:1;fill-rule:nonzero;stroke:#606060;stroke-width:73.599;stroke-linecap:butt;stroke-linejoin:miter;stroke-miterlimit:10;stroke-dasharray:none;stroke-opacity:1"
       id="path58" /><path
       d="m 14076,7252 270,-270 270,270 -270,270 z"
       style="fill:#606060;fill-opacity:1;fill-rule:nonzero;stroke:#606060;stroke-width:73.599;stroke-linecap:butt;stroke-linejoin:miter;stroke-miterlimit:10;stroke-dasharray:none;stroke-opacity:1"
       id="path60" /><path
       d="m 12044,9891 270,-270 270,270 -270,270 z"
       style="fill:#606060;fill-opacity:1;fill-rule:nonzero;stroke:#606060;stroke-width:73.599;stroke-linecap:butt;stroke-linejoin:miter;stroke-miterlimit:10;stroke-dasharray:none;stroke-opacity:1"
       id="path62" /><path
       d="m 10012,9938 270,-270 270,270 -270,270 z"
       style="fill:#606060;fill-opacity:1;fill-rule:nonzero;stroke:#606060;stroke-width:73.599;stroke-linecap:butt;stroke-linejoin:miter;stroke-miterlimit:10;stroke-dasharray:none;stroke-opacity:1"
       id="path64" /><path
       d="m 7980,12376 270,-270 270,270 -270,270 z"
       style="fill:#606060;fill-opacity:1;fill-rule:nonzero;stroke:#606060;stroke-width:73.599;stroke-linecap:butt;stroke-linejoin:miter;stroke-miterlimit:10;stroke-dasharray:none;stroke-opacity:1"
       id="path66" /><path
       d="m 5948,13706 270,-270 270,270 -270,270 z"
       style="fill:#606060;fill-opacity:1;fill-rule:nonzero;stroke:#606060;stroke-width:73.599;stroke-linecap:butt;stroke-linejoin:miter;stroke-miterlimit:10;stroke-dasharray:none;stroke-opacity:1"
       id="path68" /><path
       d="m 3916,12900 270,-270 270,270 -270,270 z"
       style="fill:#606060;fill-opacity:1;fill-rule:nonzero;stroke:#606060;stroke-width:73.599;stroke-linecap:butt;stroke-linejoin:miter;stroke-miterlimit:10;stroke-dasharray:none;stroke-opacity:1"
       id="path70" /><path
       d="m 30601,7325 -482,-93"
       style="fill:none;stroke:#000000;stroke-width:73.599;stroke-linecap:butt;stroke-linejoin:miter;stroke-miterlimit:10;stroke-dasharray:none;stroke-opacity:1"
       id="path72" /><path
       d="m 29878,7185 -482,-94"
       style="fill:none;stroke:#000000;stroke-width:73.599;stroke-linecap:butt;stroke-linejoin:miter;stroke-miterlimit:10;stroke-dasharray:none;stroke-opacity:1"
       id="path74" /><path
       d="m 29155,7044 -482,-93"
       style="fill:none;stroke:#000000;stroke-width:73.599;stroke-linecap:butt;stroke-linejoin:miter;stroke-miterlimit:10;stroke-dasharray:none;stroke-opacity:1"
       id="path76" /><path
       d="m 28437,6975 -467,152"
       style="fill:none;stroke:#000000;stroke-width:73.599;stroke-linecap:butt;stroke-linejoin:miter;stroke-miterlimit:10;stroke-dasharray:none;stroke-opacity:1"
       id="path78" /><path
       d="m 27738,7203 -467,153"
       style="fill:none;stroke:#000000;stroke-width:73.599;stroke-linecap:butt;stroke-linejoin:miter;stroke-miterlimit:10;stroke-dasharray:none;stroke-opacity:1"
       id="path80" /><path
       d="m 27038,7432 -467,152"
       style="fill:none;stroke:#000000;stroke-width:73.599;stroke-linecap:butt;stroke-linejoin:miter;stroke-miterlimit:10;stroke-dasharray:none;stroke-opacity:1"
       id="path82" /><path
       d="m 26341,7668 -460,170"
       style="fill:none;stroke:#000000;stroke-width:73.599;stroke-linecap:butt;stroke-linejoin:miter;stroke-miterlimit:10;stroke-dasharray:none;stroke-opacity:1"
       id="path84" /><path
       d="m 25651,7923 -461,170"
       style="fill:none;stroke:#000000;stroke-width:73.599;stroke-linecap:butt;stroke-linejoin:miter;stroke-miterlimit:10;stroke-dasharray:none;stroke-opacity:1"
       id="path86" /><path
       d="m 24960,8178 -455,168"
       style="fill:none;stroke:#000000;stroke-width:73.599;stroke-linecap:butt;stroke-linejoin:miter;stroke-miterlimit:10;stroke-dasharray:none;stroke-opacity:1"
       id="path88" /><path
       d="m 24505,8346 h -5"
       style="fill:none;stroke:#000000;stroke-width:73.599;stroke-linecap:butt;stroke-linejoin:miter;stroke-miterlimit:10;stroke-dasharray:none;stroke-opacity:1"
       id="path90" /><path
       d="m 24256,8314 -486,-64"
       style="fill:none;stroke:#000000;stroke-width:73.599;stroke-linecap:butt;stroke-linejoin:miter;stroke-miterlimit:10;stroke-dasharray:none;stroke-opacity:1"
       id="path92" /><path
       d="m 23526,8218 -486,-63"
       style="fill:none;stroke:#000000;stroke-width:73.599;stroke-linecap:butt;stroke-linejoin:miter;stroke-miterlimit:10;stroke-dasharray:none;stroke-opacity:1"
       id="path94" /><path
       d="m 22796,8123 -323,-43"
       style="fill:none;stroke:#000000;stroke-width:73.599;stroke-linecap:butt;stroke-linejoin:miter;stroke-miterlimit:10;stroke-dasharray:none;stroke-opacity:1"
       id="path96" /><path
       d="m 22473,8080 -146,-75"
       style="fill:none;stroke:#000000;stroke-width:73.599;stroke-linecap:butt;stroke-linejoin:miter;stroke-miterlimit:10;stroke-dasharray:none;stroke-opacity:1"
       id="path98" /><path
       d="m 22109,7894 -437,-224"
       style="fill:none;stroke:#000000;stroke-width:73.599;stroke-linecap:butt;stroke-linejoin:miter;stroke-miterlimit:10;stroke-dasharray:none;stroke-opacity:1"
       id="path100" /><path
       d="m 21454,7558 -437,-224"
       style="fill:none;stroke:#000000;stroke-width:73.599;stroke-linecap:butt;stroke-linejoin:miter;stroke-miterlimit:10;stroke-dasharray:none;stroke-opacity:1"
       id="path102" /><path
       d="m 20799,7222 -358,-183"
       style="fill:none;stroke:#000000;stroke-width:73.599;stroke-linecap:butt;stroke-linejoin:miter;stroke-miterlimit:10;stroke-dasharray:none;stroke-opacity:1"
       id="path104" /><path
       d="m 20441,7039 -59,66"
       style="fill:none;stroke:#000000;stroke-width:73.599;stroke-linecap:butt;stroke-linejoin:miter;stroke-miterlimit:10;stroke-dasharray:none;stroke-opacity:1"
       id="path106" /><path
       d="m 20219,7289 -326,366"
       style="fill:none;stroke:#000000;stroke-width:73.599;stroke-linecap:butt;stroke-linejoin:miter;stroke-miterlimit:10;stroke-dasharray:none;stroke-opacity:1"
       id="path108" /><path
       d="m 19730,7839 -327,366"
       style="fill:none;stroke:#000000;stroke-width:73.599;stroke-linecap:butt;stroke-linejoin:miter;stroke-miterlimit:10;stroke-dasharray:none;stroke-opacity:1"
       id="path110" /><path
       d="m 19240,8388 -326,367"
       style="fill:none;stroke:#000000;stroke-width:73.599;stroke-linecap:butt;stroke-linejoin:miter;stroke-miterlimit:10;stroke-dasharray:none;stroke-opacity:1"
       id="path112" /><path
       d="m 18752,8938 -326,367"
       style="fill:none;stroke:#000000;stroke-width:73.599;stroke-linecap:butt;stroke-linejoin:miter;stroke-miterlimit:10;stroke-dasharray:none;stroke-opacity:1"
       id="path114" /><path
       d="m 18203,9246 -459,-175"
       style="fill:none;stroke:#000000;stroke-width:73.599;stroke-linecap:butt;stroke-linejoin:miter;stroke-miterlimit:10;stroke-dasharray:none;stroke-opacity:1"
       id="path116" /><path
       d="m 17515,8984 -459,-175"
       style="fill:none;stroke:#000000;stroke-width:73.599;stroke-linecap:butt;stroke-linejoin:miter;stroke-miterlimit:10;stroke-dasharray:none;stroke-opacity:1"
       id="path118" /><path
       d="m 16828,8721 -450,-171"
       style="fill:none;stroke:#000000;stroke-width:73.599;stroke-linecap:butt;stroke-linejoin:miter;stroke-miterlimit:10;stroke-dasharray:none;stroke-opacity:1"
       id="path120" /><path
       d="m 16378,8550 -10,1"
       style="fill:none;stroke:#000000;stroke-width:73.599;stroke-linecap:butt;stroke-linejoin:miter;stroke-miterlimit:10;stroke-dasharray:none;stroke-opacity:1"
       id="path122" /><path
       d="m 16125,8583 -486,65"
       style="fill:none;stroke:#000000;stroke-width:73.599;stroke-linecap:butt;stroke-linejoin:miter;stroke-miterlimit:10;stroke-dasharray:none;stroke-opacity:1"
       id="path124" /><path
       d="m 15395,8680 -486,64"
       style="fill:none;stroke:#000000;stroke-width:73.599;stroke-linecap:butt;stroke-linejoin:miter;stroke-miterlimit:10;stroke-dasharray:none;stroke-opacity:1"
       id="path126" /><path
       d="m 14666,8777 -320,42"
       style="fill:none;stroke:#000000;stroke-width:73.599;stroke-linecap:butt;stroke-linejoin:miter;stroke-miterlimit:10;stroke-dasharray:none;stroke-opacity:1"
       id="path128" /><path
       d="m 14346,8819 -125,112"
       style="fill:none;stroke:#000000;stroke-width:73.599;stroke-linecap:butt;stroke-linejoin:miter;stroke-miterlimit:10;stroke-dasharray:none;stroke-opacity:1"
       id="path130" /><path
       d="m 14038,9094 -367,327"
       style="fill:none;stroke:#000000;stroke-width:73.599;stroke-linecap:butt;stroke-linejoin:miter;stroke-miterlimit:10;stroke-dasharray:none;stroke-opacity:1"
       id="path132" /><path
       d="m 13489,9585 -367,327"
       style="fill:none;stroke:#000000;stroke-width:73.599;stroke-linecap:butt;stroke-linejoin:miter;stroke-miterlimit:10;stroke-dasharray:none;stroke-opacity:1"
       id="path134" /><path
       d="m 12939,10075 -366,326"
       style="fill:none;stroke:#000000;stroke-width:73.599;stroke-linecap:butt;stroke-linejoin:miter;stroke-miterlimit:10;stroke-dasharray:none;stroke-opacity:1"
       id="path136" /><path
       d="m 12390,10565 -76,68"
       style="fill:none;stroke:#000000;stroke-width:73.599;stroke-linecap:butt;stroke-linejoin:miter;stroke-miterlimit:10;stroke-dasharray:none;stroke-opacity:1"
       id="path138" /><path
       d="m 12314,10633 -226,316"
       style="fill:none;stroke:#000000;stroke-width:73.599;stroke-linecap:butt;stroke-linejoin:miter;stroke-miterlimit:10;stroke-dasharray:none;stroke-opacity:1"
       id="path140" /><path
       d="m 11945,11148 -286,400"
       style="fill:none;stroke:#000000;stroke-width:73.599;stroke-linecap:butt;stroke-linejoin:miter;stroke-miterlimit:10;stroke-dasharray:none;stroke-opacity:1"
       id="path142" /><path
       d="m 11516,11747 -286,399"
       style="fill:none;stroke:#000000;stroke-width:73.599;stroke-linecap:butt;stroke-linejoin:miter;stroke-miterlimit:10;stroke-dasharray:none;stroke-opacity:1"
       id="path144" /><path
       d="m 11087,12346 -286,399"
       style="fill:none;stroke:#000000;stroke-width:73.599;stroke-linecap:butt;stroke-linejoin:miter;stroke-miterlimit:10;stroke-dasharray:none;stroke-opacity:1"
       id="path146" /><path
       d="m 10658,12944 -285,399"
       style="fill:none;stroke:#000000;stroke-width:73.599;stroke-linecap:butt;stroke-linejoin:miter;stroke-miterlimit:10;stroke-dasharray:none;stroke-opacity:1"
       id="path148" /><path
       d="m 10242,13550 -220,438"
       style="fill:none;stroke:#000000;stroke-width:73.599;stroke-linecap:butt;stroke-linejoin:miter;stroke-miterlimit:10;stroke-dasharray:none;stroke-opacity:1"
       id="path150" /><path
       d="m 9912,14208 -220,438"
       style="fill:none;stroke:#000000;stroke-width:73.599;stroke-linecap:butt;stroke-linejoin:miter;stroke-miterlimit:10;stroke-dasharray:none;stroke-opacity:1"
       id="path152" /><path
       d="m 9581,14865 -220,439"
       style="fill:none;stroke:#000000;stroke-width:73.599;stroke-linecap:butt;stroke-linejoin:miter;stroke-miterlimit:10;stroke-dasharray:none;stroke-opacity:1"
       id="path154" /><path
       d="m 9251,15523 -220,439"
       style="fill:none;stroke:#000000;stroke-width:73.599;stroke-linecap:butt;stroke-linejoin:miter;stroke-miterlimit:10;stroke-dasharray:none;stroke-opacity:1"
       id="path156" /><path
       d="m 8921,16181 -220,438"
       style="fill:none;stroke:#000000;stroke-width:73.599;stroke-linecap:butt;stroke-linejoin:miter;stroke-miterlimit:10;stroke-dasharray:none;stroke-opacity:1"
       id="path158" /><path
       d="m 8590,16838 -220,439"
       style="fill:none;stroke:#000000;stroke-width:73.599;stroke-linecap:butt;stroke-linejoin:miter;stroke-miterlimit:10;stroke-dasharray:none;stroke-opacity:1"
       id="path160" /><path
       d="m 8260,17496 -10,20"
       style="fill:none;stroke:#000000;stroke-width:73.599;stroke-linecap:butt;stroke-linejoin:miter;stroke-miterlimit:10;stroke-dasharray:none;stroke-opacity:1"
       id="path162" /><path
       d="m 8250,17516 -380,-274"
       style="fill:none;stroke:#000000;stroke-width:73.599;stroke-linecap:butt;stroke-linejoin:miter;stroke-miterlimit:10;stroke-dasharray:none;stroke-opacity:1"
       id="path164" /><path
       d="m 7671,17098 -398,-288"
       style="fill:none;stroke:#000000;stroke-width:73.599;stroke-linecap:butt;stroke-linejoin:miter;stroke-miterlimit:10;stroke-dasharray:none;stroke-opacity:1"
       id="path166" /><path
       d="m 7074,16667 -397,-288"
       style="fill:none;stroke:#000000;stroke-width:73.599;stroke-linecap:butt;stroke-linejoin:miter;stroke-miterlimit:10;stroke-dasharray:none;stroke-opacity:1"
       id="path168" /><path
       d="m 6478,16236 -260,-188"
       style="fill:none;stroke:#000000;stroke-width:73.599;stroke-linecap:butt;stroke-linejoin:miter;stroke-miterlimit:10;stroke-dasharray:none;stroke-opacity:1"
       id="path170" /><path
       d="m 6218,16048 -76,153"
       style="fill:none;stroke:#000000;stroke-width:73.599;stroke-linecap:butt;stroke-linejoin:miter;stroke-miterlimit:10;stroke-dasharray:none;stroke-opacity:1"
       id="path172" /><path
       d="m 6033,16420 -218,440"
       style="fill:none;stroke:#000000;stroke-width:73.599;stroke-linecap:butt;stroke-linejoin:miter;stroke-miterlimit:10;stroke-dasharray:none;stroke-opacity:1"
       id="path174" /><path
       d="m 5706,17080 -218,439"
       style="fill:none;stroke:#000000;stroke-width:73.599;stroke-linecap:butt;stroke-linejoin:miter;stroke-miterlimit:10;stroke-dasharray:none;stroke-opacity:1"
       id="path176" /><path
       d="m 5379,17739 -218,439"
       style="fill:none;stroke:#000000;stroke-width:73.599;stroke-linecap:butt;stroke-linejoin:miter;stroke-miterlimit:10;stroke-dasharray:none;stroke-opacity:1"
       id="path178" /><path
       d="m 5053,18398 -219,440"
       style="fill:none;stroke:#000000;stroke-width:73.599;stroke-linecap:butt;stroke-linejoin:miter;stroke-miterlimit:10;stroke-dasharray:none;stroke-opacity:1"
       id="path180" /><path
       d="m 4725,19057 -218,440"
       style="fill:none;stroke:#000000;stroke-width:73.599;stroke-linecap:butt;stroke-linejoin:miter;stroke-miterlimit:10;stroke-dasharray:none;stroke-opacity:1"
       id="path182" /><path
       d="m 4398,19716 -212,427"
       style="fill:none;stroke:#000000;stroke-width:73.599;stroke-linecap:butt;stroke-linejoin:miter;stroke-miterlimit:10;stroke-dasharray:none;stroke-opacity:1"
       id="path184" /><path
       d="m 30410,7325 c 0,105.4321 85.568,191 191,191 105.432,0 191,-85.5679 191,-191 0,-105.4321 -85.568,-191 -191,-191 -105.432,0 -191,85.5679 -191,191"
       style="fill:#a0a0a0;fill-opacity:1;fill-rule:nonzero;stroke:#a0a0a0;stroke-width:73.599;stroke-linecap:butt;stroke-linejoin:miter;stroke-miterlimit:10;stroke-dasharray:none;stroke-opacity:1"
       id="path186" /><path
       d="m 28378,6931 c 0,105.4321 85.568,191 191,191 105.432,0 191,-85.5679 191,-191 0,-105.4321 -85.568,-191 -191,-191 -105.432,0 -191,85.5679 -191,191"
       style="fill:#a0a0a0;fill-opacity:1;fill-rule:nonzero;stroke:#a0a0a0;stroke-width:73.599;stroke-linecap:butt;stroke-linejoin:miter;stroke-miterlimit:10;stroke-dasharray:none;stroke-opacity:1"
       id="path188" /><path
       d="m 26346,7596 c 0,105.4321 85.568,191 191,191 105.432,0 191,-85.5679 191,-191 0,-105.4321 -85.568,-191 -191,-191 -105.432,0 -191,85.5679 -191,191"
       style="fill:#a0a0a0;fill-opacity:1;fill-rule:nonzero;stroke:#a0a0a0;stroke-width:73.599;stroke-linecap:butt;stroke-linejoin:miter;stroke-miterlimit:10;stroke-dasharray:none;stroke-opacity:1"
       id="path190" /><path
       d="m 24314,8346 c 0,105.4316 85.568,191 191,191 105.432,0 191,-85.5684 191,-191 0,-105.4316 -85.568,-191 -191,-191 -105.432,0 -191,85.5684 -191,191"
       style="fill:#a0a0a0;fill-opacity:1;fill-rule:nonzero;stroke:#a0a0a0;stroke-width:73.599;stroke-linecap:butt;stroke-linejoin:miter;stroke-miterlimit:10;stroke-dasharray:none;stroke-opacity:1"
       id="path192" /><path
       d="m 22282,8080 c 0,105.4321 85.568,191 191,191 105.432,0 191,-85.5679 191,-191 0,-105.4321 -85.568,-191 -191,-191 -105.432,0 -191,85.5679 -191,191"
       style="fill:#a0a0a0;fill-opacity:1;fill-rule:nonzero;stroke:#a0a0a0;stroke-width:73.599;stroke-linecap:butt;stroke-linejoin:miter;stroke-miterlimit:10;stroke-dasharray:none;stroke-opacity:1"
       id="path194" /><path
       d="m 20250,7039 c 0,105.4321 85.568,191 191,191 105.432,0 191,-85.5679 191,-191 0,-105.4321 -85.568,-191 -191,-191 -105.432,0 -191,85.5679 -191,191"
       style="fill:#a0a0a0;fill-opacity:1;fill-rule:nonzero;stroke:#a0a0a0;stroke-width:73.599;stroke-linecap:butt;stroke-linejoin:miter;stroke-miterlimit:10;stroke-dasharray:none;stroke-opacity:1"
       id="path196" /><path
       d="m 18218,9324 c 0,105.4316 85.568,191 191,191 105.432,0 191,-85.5684 191,-191 0,-105.4316 -85.568,-191 -191,-191 -105.432,0 -191,85.5684 -191,191"
       style="fill:#a0a0a0;fill-opacity:1;fill-rule:nonzero;stroke:#a0a0a0;stroke-width:73.599;stroke-linecap:butt;stroke-linejoin:miter;stroke-miterlimit:10;stroke-dasharray:none;stroke-opacity:1"
       id="path198" /><path
       d="m 16187,8550 c 0,105.4316 85.568,191 191,191 105.432,0 191,-85.5684 191,-191 0,-105.4316 -85.568,-191 -191,-191 -105.432,0 -191,85.5684 -191,191"
       style="fill:#a0a0a0;fill-opacity:1;fill-rule:nonzero;stroke:#a0a0a0;stroke-width:73.599;stroke-linecap:butt;stroke-linejoin:miter;stroke-miterlimit:10;stroke-dasharray:none;stroke-opacity:1"
       id="path200" /><path
       d="m 14155,8819 c 0,105.4316 85.568,191 191,191 105.432,0 191,-85.5684 191,-191 0,-105.4316 -85.568,-191 -191,-191 -105.432,0 -191,85.5684 -191,191"
       style="fill:#a0a0a0;fill-opacity:1;fill-rule:nonzero;stroke:#a0a0a0;stroke-width:73.599;stroke-linecap:butt;stroke-linejoin:miter;stroke-miterlimit:10;stroke-dasharray:none;stroke-opacity:1"
       id="path202" /><path
       d="m 12123,10633 c 0,105.432 85.568,191 191,191 105.432,0 191,-85.568 191,-191 0,-105.432 -85.568,-191 -191,-191 -105.432,0 -191,85.568 -191,191"
       style="fill:#a0a0a0;fill-opacity:1;fill-rule:nonzero;stroke:#a0a0a0;stroke-width:73.599;stroke-linecap:butt;stroke-linejoin:miter;stroke-miterlimit:10;stroke-dasharray:none;stroke-opacity:1"
       id="path204" /><path
       d="m 10091,13470 c 0,105.432 85.568,191 191,191 105.432,0 191,-85.568 191,-191 0,-105.432 -85.568,-191 -191,-191 -105.432,0 -191,85.568 -191,191"
       style="fill:#a0a0a0;fill-opacity:1;fill-rule:nonzero;stroke:#a0a0a0;stroke-width:73.599;stroke-linecap:butt;stroke-linejoin:miter;stroke-miterlimit:10;stroke-dasharray:none;stroke-opacity:1"
       id="path206" /><path
       d="m 8059,17516 c 0,105.432 85.5679,191 191,191 105.4316,0 191,-85.568 191,-191 0,-105.432 -85.5684,-191 -191,-191 -105.4321,0 -191,85.568 -191,191"
       style="fill:#a0a0a0;fill-opacity:1;fill-rule:nonzero;stroke:#a0a0a0;stroke-width:73.599;stroke-linecap:butt;stroke-linejoin:miter;stroke-miterlimit:10;stroke-dasharray:none;stroke-opacity:1"
       id="path208" /><path
       d="m 6027,16048 c 0,105.432 85.5679,191 191,191 105.4321,0 191,-85.568 191,-191 0,-105.432 -85.5679,-191 -191,-191 -105.4321,0 -191,85.568 -191,191"
       style="fill:#a0a0a0;fill-opacity:1;fill-rule:nonzero;stroke:#a0a0a0;stroke-width:73.599;stroke-linecap:butt;stroke-linejoin:miter;stroke-miterlimit:10;stroke-dasharray:none;stroke-opacity:1"
       id="path210" /><path
       d="m 3995,20143 c 0,105.432 85.5681,191 191,191 105.4321,0 191,-85.568 191,-191 0,-105.432 -85.5679,-191 -191,-191 -105.4319,0 -191,85.568 -191,191"
       style="fill:#a0a0a0;fill-opacity:1;fill-rule:nonzero;stroke:#a0a0a0;stroke-width:73.599;stroke-linecap:butt;stroke-linejoin:miter;stroke-miterlimit:10;stroke-dasharray:none;stroke-opacity:1"
       id="path212" /><path
       d="M 3647,5470 V 22300"
       style="fill:none;stroke:#000000;stroke-width:49.066;stroke-linecap:butt;stroke-linejoin:miter;stroke-miterlimit:10;stroke-dasharray:none;stroke-opacity:1"
       id="path214" /><path
       d="M 3647,6009 H 3306"
       style="fill:none;stroke:#000000;stroke-width:49.066;stroke-linecap:butt;stroke-linejoin:miter;stroke-miterlimit:10;stroke-dasharray:none;stroke-opacity:1"
       id="path216" /><g
       id="g218" /><g
       id="g220"><text
         transform="matrix(0,1,1,0,2893,5806.5)"
         style="font-variant:normal;font-weight:normal;font-size:810px;font-family:TimesNewRomanPSMT;-inkscape-font-specification:TimesNewRomanPSMT;writing-mode:lr-tb;fill:#000000;fill-opacity:1;fill-rule:nonzero;stroke:none"
         id="text224"><tspan
           x="0"
           y="0"
           id="tspan222">0</tspan></text></g><path
       d="M 3647,9160 H 3306"
       style="fill:none;stroke:#000000;stroke-width:49.066;stroke-linecap:butt;stroke-linejoin:miter;stroke-miterlimit:10;stroke-dasharray:none;stroke-opacity:1"
       id="path226" /><g
       id="g228" /><g
       id="g230"><text
         transform="matrix(0,1,1,0,2893,8856.25)"
         style="font-variant:normal;font-weight:normal;font-size:810px;font-family:TimesNewRomanPSMT;-inkscape-font-specification:TimesNewRomanPSMT;writing-mode:lr-tb;fill:#000000;fill-opacity:1;fill-rule:nonzero;stroke:none"
         id="text234"><tspan
           x="0 202.5"
           y="0"
           sodipodi:role="line"
           id="tspan232">.5</tspan></text></g><path
       d="M 3647,12310 H 3306"
       style="fill:none;stroke:#000000;stroke-width:49.066;stroke-linecap:butt;stroke-linejoin:miter;stroke-miterlimit:10;stroke-dasharray:none;stroke-opacity:1"
       id="path236" /><g
       id="g238" /><g
       id="g240"><text
         transform="matrix(0,1,1,0,2893,12107.5)"
         style="font-variant:normal;font-weight:normal;font-size:810px;font-family:TimesNewRomanPSMT;-inkscape-font-specification:TimesNewRomanPSMT;writing-mode:lr-tb;fill:#000000;fill-opacity:1;fill-rule:nonzero;stroke:none"
         id="text244"><tspan
           x="0"
           y="0"
           id="tspan242">1</tspan></text></g><path
       d="M 3647,15460 H 3306"
       style="fill:none;stroke:#000000;stroke-width:49.066;stroke-linecap:butt;stroke-linejoin:miter;stroke-miterlimit:10;stroke-dasharray:none;stroke-opacity:1"
       id="path246" /><g
       id="g248" /><g
       id="g250"><text
         transform="matrix(0,1,1,0,2893,14953.75)"
         style="font-variant:normal;font-weight:normal;font-size:810px;font-family:TimesNewRomanPSMT;-inkscape-font-specification:TimesNewRomanPSMT;writing-mode:lr-tb;fill:#000000;fill-opacity:1;fill-rule:nonzero;stroke:none"
         id="text254"><tspan
           x="0 405 607.5"
           y="0"
           sodipodi:role="line"
           id="tspan252">1.5</tspan></text></g><path
       d="M 3647,18610 H 3306"
       style="fill:none;stroke:#000000;stroke-width:49.066;stroke-linecap:butt;stroke-linejoin:miter;stroke-miterlimit:10;stroke-dasharray:none;stroke-opacity:1"
       id="path256" /><g
       id="g258" /><g
       id="g260"><text
         transform="matrix(0,1,1,0,2893,18407.5)"
         style="font-variant:normal;font-weight:normal;font-size:810px;font-family:TimesNewRomanPSMT;-inkscape-font-specification:TimesNewRomanPSMT;writing-mode:lr-tb;fill:#000000;fill-opacity:1;fill-rule:nonzero;stroke:none"
         id="text264"><tspan
           x="0"
           y="0"
           id="tspan262">2</tspan></text></g><path
       d="M 3647,21761 H 3306"
       style="fill:none;stroke:#000000;stroke-width:49.066;stroke-linecap:butt;stroke-linejoin:miter;stroke-miterlimit:10;stroke-dasharray:none;stroke-opacity:1"
       id="path266" /><g
       id="g268" /><g
       id="g270"><text
         transform="matrix(0,1,1,0,2893,21254.75)"
         style="font-variant:normal;font-weight:normal;font-size:810px;font-family:TimesNewRomanPSMT;-inkscape-font-specification:TimesNewRomanPSMT;writing-mode:lr-tb;fill:#000000;fill-opacity:1;fill-rule:nonzero;stroke:none"
         id="text274"><tspan
           x="0 405 607.5"
           y="0"
           sodipodi:role="line"
           id="tspan272">2.5</tspan></text></g><g
       id="g276" /><g
       id="g278"><text
         transform="matrix(0,1,1,0,1699,12956.71)"
         style="font-variant:normal;font-weight:normal;font-size:957px;font-family:TimesNewRomanPSMT;-inkscape-font-specification:TimesNewRomanPSMT;writing-mode:lr-tb;fill:#000000;fill-opacity:1;fill-rule:nonzero;stroke:none"
         id="text282"><tspan
           x="0 265.08899 689.03998 1167.54 1591.491"
           y="0"
           sodipodi:role="line"
           id="tspan280">level</tspan></text></g><path
       d="M 3647,5470 H 31141"
       style="fill:none;stroke:#000000;stroke-width:49.066;stroke-linecap:butt;stroke-linejoin:miter;stroke-miterlimit:10;stroke-dasharray:none;stroke-opacity:1"
       id="path284" /><path
       d="M 4187,5470 V 5129"
       style="fill:none;stroke:#000000;stroke-width:49.066;stroke-linecap:butt;stroke-linejoin:miter;stroke-miterlimit:10;stroke-dasharray:none;stroke-opacity:1"
       id="path286" /><g
       id="g288" /><g
       id="g290"><text
         transform="matrix(0.70711,0.70711,0.70711,-0.70711,3623.5156,3994.5156)"
         style="font-variant:normal;font-weight:normal;font-size:810.004px;font-family:TimesNewRomanPSMT;-inkscape-font-specification:TimesNewRomanPSMT;writing-mode:lr-tb;fill:#000000;fill-opacity:1;fill-rule:nonzero;stroke:none"
         id="text294"><tspan
           x="0 405.00183 674.73309"
           y="0"
           sodipodi:role="line"
           id="tspan292">0-1</tspan></text></g><path
       d="M 6219,5470 V 5129"
       style="fill:none;stroke:#000000;stroke-width:49.066;stroke-linecap:butt;stroke-linejoin:miter;stroke-miterlimit:10;stroke-dasharray:none;stroke-opacity:1"
       id="path296" /><g
       id="g298" /><g
       id="g300"><text
         transform="matrix(0.70711,0.70711,0.70711,-0.70711,5655.5156,3994.5156)"
         style="font-variant:normal;font-weight:normal;font-size:810.004px;font-family:TimesNewRomanPSMT;-inkscape-font-specification:TimesNewRomanPSMT;writing-mode:lr-tb;fill:#000000;fill-opacity:1;fill-rule:nonzero;stroke:none"
         id="text304"><tspan
           x="0 405.00183 674.73309"
           y="0"
           sodipodi:role="line"
           id="tspan302">2-3</tspan></text></g><path
       d="M 8251,5470 V 5129"
       style="fill:none;stroke:#000000;stroke-width:49.066;stroke-linecap:butt;stroke-linejoin:miter;stroke-miterlimit:10;stroke-dasharray:none;stroke-opacity:1"
       id="path306" /><g
       id="g308" /><g
       id="g310"><text
         transform="matrix(0.70711,0.70711,0.70711,-0.70711,7687.5156,3994.5156)"
         style="font-variant:normal;font-weight:normal;font-size:810.004px;font-family:TimesNewRomanPSMT;-inkscape-font-specification:TimesNewRomanPSMT;writing-mode:lr-tb;fill:#000000;fill-opacity:1;fill-rule:nonzero;stroke:none"
         id="text314"><tspan
           x="0 405.00183 674.73309"
           y="0"
           sodipodi:role="line"
           id="tspan312">4-5</tspan></text></g><path
       d="M 10283,5470 V 5129"
       style="fill:none;stroke:#000000;stroke-width:49.066;stroke-linecap:butt;stroke-linejoin:miter;stroke-miterlimit:10;stroke-dasharray:none;stroke-opacity:1"
       id="path316" /><g
       id="g318" /><g
       id="g320"><text
         transform="matrix(0.70711,0.70711,0.70711,-0.70711,9719.5156,3994.5156)"
         style="font-variant:normal;font-weight:normal;font-size:810.004px;font-family:TimesNewRomanPSMT;-inkscape-font-specification:TimesNewRomanPSMT;writing-mode:lr-tb;fill:#000000;fill-opacity:1;fill-rule:nonzero;stroke:none"
         id="text324"><tspan
           x="0 405.00183 674.73309"
           y="0"
           sodipodi:role="line"
           id="tspan322">6-7</tspan></text></g><path
       d="M 12314,5470 V 5129"
       style="fill:none;stroke:#000000;stroke-width:49.066;stroke-linecap:butt;stroke-linejoin:miter;stroke-miterlimit:10;stroke-dasharray:none;stroke-opacity:1"
       id="path326" /><g
       id="g328" /><g
       id="g330"><text
         transform="matrix(0.70711,0.70711,0.70711,-0.70711,11750.516,3994.5156)"
         style="font-variant:normal;font-weight:normal;font-size:810.004px;font-family:TimesNewRomanPSMT;-inkscape-font-specification:TimesNewRomanPSMT;writing-mode:lr-tb;fill:#000000;fill-opacity:1;fill-rule:nonzero;stroke:none"
         id="text334"><tspan
           x="0 405.00183 674.73309"
           y="0"
           sodipodi:role="line"
           id="tspan332">8-9</tspan></text></g><path
       d="M 14346,5470 V 5129"
       style="fill:none;stroke:#000000;stroke-width:49.066;stroke-linecap:butt;stroke-linejoin:miter;stroke-miterlimit:10;stroke-dasharray:none;stroke-opacity:1"
       id="path336" /><g
       id="g338" /><g
       id="g340"><text
         transform="matrix(0.70711,0.70711,0.70711,-0.70711,13209.759,3421.759)"
         style="font-variant:normal;font-weight:normal;font-size:810.004px;font-family:TimesNewRomanPSMT;-inkscape-font-specification:TimesNewRomanPSMT;writing-mode:lr-tb;fill:#000000;fill-opacity:1;fill-rule:nonzero;stroke:none"
         id="text344"><tspan
           x="0 405.00183 810.00366 1079.7349 1484.7368"
           y="0"
           sodipodi:role="line"
           id="tspan342">10-11</tspan></text></g><path
       d="M 16378,5470 V 5129"
       style="fill:none;stroke:#000000;stroke-width:49.066;stroke-linecap:butt;stroke-linejoin:miter;stroke-miterlimit:10;stroke-dasharray:none;stroke-opacity:1"
       id="path346" /><g
       id="g348" /><g
       id="g350"><text
         transform="matrix(0.70711,0.70711,0.70711,-0.70711,15241.759,3421.759)"
         style="font-variant:normal;font-weight:normal;font-size:810.004px;font-family:TimesNewRomanPSMT;-inkscape-font-specification:TimesNewRomanPSMT;writing-mode:lr-tb;fill:#000000;fill-opacity:1;fill-rule:nonzero;stroke:none"
         id="text354"><tspan
           x="0 405.00183 810.00366 1079.7349 1484.7368"
           y="0"
           sodipodi:role="line"
           id="tspan352">12-13</tspan></text></g><path
       d="M 18410,5470 V 5129"
       style="fill:none;stroke:#000000;stroke-width:49.066;stroke-linecap:butt;stroke-linejoin:miter;stroke-miterlimit:10;stroke-dasharray:none;stroke-opacity:1"
       id="path356" /><g
       id="g358" /><g
       id="g360"><text
         transform="matrix(0.70711,0.70711,0.70711,-0.70711,17273.76,3421.759)"
         style="font-variant:normal;font-weight:normal;font-size:810.004px;font-family:TimesNewRomanPSMT;-inkscape-font-specification:TimesNewRomanPSMT;writing-mode:lr-tb;fill:#000000;fill-opacity:1;fill-rule:nonzero;stroke:none"
         id="text364"><tspan
           x="0 405.00183 810.00366 1079.7349 1484.7368"
           y="0"
           sodipodi:role="line"
           id="tspan362">14-15</tspan></text></g><path
       d="M 20442,5470 V 5129"
       style="fill:none;stroke:#000000;stroke-width:49.066;stroke-linecap:butt;stroke-linejoin:miter;stroke-miterlimit:10;stroke-dasharray:none;stroke-opacity:1"
       id="path366" /><g
       id="g368" /><g
       id="g370"><text
         transform="matrix(0.70711,0.70711,0.70711,-0.70711,19305.76,3421.759)"
         style="font-variant:normal;font-weight:normal;font-size:810.004px;font-family:TimesNewRomanPSMT;-inkscape-font-specification:TimesNewRomanPSMT;writing-mode:lr-tb;fill:#000000;fill-opacity:1;fill-rule:nonzero;stroke:none"
         id="text374"><tspan
           x="0 405.00183 810.00366 1079.7349 1484.7368"
           y="0"
           sodipodi:role="line"
           id="tspan372">16-17</tspan></text></g><path
       d="M 22474,5470 V 5129"
       style="fill:none;stroke:#000000;stroke-width:49.066;stroke-linecap:butt;stroke-linejoin:miter;stroke-miterlimit:10;stroke-dasharray:none;stroke-opacity:1"
       id="path376" /><g
       id="g378" /><g
       id="g380"><text
         transform="matrix(0.70711,0.70711,0.70711,-0.70711,21337.76,3421.759)"
         style="font-variant:normal;font-weight:normal;font-size:810.004px;font-family:TimesNewRomanPSMT;-inkscape-font-specification:TimesNewRomanPSMT;writing-mode:lr-tb;fill:#000000;fill-opacity:1;fill-rule:nonzero;stroke:none"
         id="text384"><tspan
           x="0 405.00183 810.00366 1079.7349 1484.7368"
           y="0"
           sodipodi:role="line"
           id="tspan382">18-19</tspan></text></g><path
       d="M 24506,5470 V 5129"
       style="fill:none;stroke:#000000;stroke-width:49.066;stroke-linecap:butt;stroke-linejoin:miter;stroke-miterlimit:10;stroke-dasharray:none;stroke-opacity:1"
       id="path386" /><g
       id="g388" /><g
       id="g390"><text
         transform="matrix(0.70711,0.70711,0.70711,-0.70711,23369.76,3421.759)"
         style="font-variant:normal;font-weight:normal;font-size:810.004px;font-family:TimesNewRomanPSMT;-inkscape-font-specification:TimesNewRomanPSMT;writing-mode:lr-tb;fill:#000000;fill-opacity:1;fill-rule:nonzero;stroke:none"
         id="text394"><tspan
           x="0 405.00183 810.00366 1079.7349 1484.7368"
           y="0"
           sodipodi:role="line"
           id="tspan392">20-21</tspan></text></g><path
       d="M 26537,5470 V 5129"
       style="fill:none;stroke:#000000;stroke-width:49.066;stroke-linecap:butt;stroke-linejoin:miter;stroke-miterlimit:10;stroke-dasharray:none;stroke-opacity:1"
       id="path396" /><g
       id="g398" /><g
       id="g400"><text
         transform="matrix(0.70711,0.70711,0.70711,-0.70711,25400.76,3421.759)"
         style="font-variant:normal;font-weight:normal;font-size:810.004px;font-family:TimesNewRomanPSMT;-inkscape-font-specification:TimesNewRomanPSMT;writing-mode:lr-tb;fill:#000000;fill-opacity:1;fill-rule:nonzero;stroke:none"
         id="text404"><tspan
           x="0 405.00183 810.00366 1079.7349 1484.7368"
           y="0"
           sodipodi:role="line"
           id="tspan402">22-23</tspan></text></g><path
       d="M 28569,5470 V 5129"
       style="fill:none;stroke:#000000;stroke-width:49.066;stroke-linecap:butt;stroke-linejoin:miter;stroke-miterlimit:10;stroke-dasharray:none;stroke-opacity:1"
       id="path406" /><g
       id="g408" /><g
       id="g410"><text
         transform="matrix(0.70711,0.70711,0.70711,-0.70711,27432.76,3421.759)"
         style="font-variant:normal;font-weight:normal;font-size:810.004px;font-family:TimesNewRomanPSMT;-inkscape-font-specification:TimesNewRomanPSMT;writing-mode:lr-tb;fill:#000000;fill-opacity:1;fill-rule:nonzero;stroke:none"
         id="text414"><tspan
           x="0 405.00183 810.00366 1079.7349 1484.7368"
           y="0"
           sodipodi:role="line"
           id="tspan412">24-25</tspan></text></g><path
       d="M 30601,5470 V 5129"
       style="fill:none;stroke:#000000;stroke-width:49.066;stroke-linecap:butt;stroke-linejoin:miter;stroke-miterlimit:10;stroke-dasharray:none;stroke-opacity:1"
       id="path416" /><g
       id="g418" /><g
       id="g420"><text
         transform="matrix(0.70711,0.70711,0.70711,-0.70711,29464.76,3421.759)"
         style="font-variant:normal;font-weight:normal;font-size:810.004px;font-family:TimesNewRomanPSMT;-inkscape-font-specification:TimesNewRomanPSMT;writing-mode:lr-tb;fill:#000000;fill-opacity:1;fill-rule:nonzero;stroke:none"
         id="text424"><tspan
           x="0 405.00183 810.00366 1079.7349 1484.7368"
           y="0"
           sodipodi:role="line"
           id="tspan422">26-27</tspan></text></g><g
       id="g426" /><g
       id="g428"><text
         transform="matrix(1,0,0,-1,15162.754,2126)"
         style="font-variant:normal;font-weight:normal;font-size:957px;font-family:TimesNewRomanPSMT;-inkscape-font-specification:TimesNewRomanPSMT;writing-mode:lr-tb;fill:#000000;fill-opacity:1;fill-rule:nonzero;stroke:none"
         id="text432"><tspan
           x="0 423.95099 902.45099 1326.402 1565.652 1830.741 2309.241 2548.491 3026.991 3505.491 3983.991"
           y="0"
           sodipodi:role="line"
           id="tspan430">age in 1975</tspan></text></g><path
       d="m 21947,19226 h 8900 v 2780 h -8900 z"
       style="fill:#ffffff;fill-opacity:1;fill-rule:nonzero;stroke:#000000;stroke-width:49.066;stroke-linecap:butt;stroke-linejoin:miter;stroke-miterlimit:10;stroke-dasharray:none;stroke-opacity:1"
       id="path434" /><path
       d="m 22315,21212 h 3190"
       style="fill:none;stroke:#000000;stroke-width:73.599;stroke-linecap:butt;stroke-linejoin:miter;stroke-miterlimit:10;stroke-dasharray:none;stroke-opacity:1"
       id="path436" /><path
       d="m 23640,21212 270,-270 270,270 -270,270 z"
       style="fill:#606060;fill-opacity:1;fill-rule:nonzero;stroke:#606060;stroke-width:73.599;stroke-linecap:butt;stroke-linejoin:miter;stroke-miterlimit:10;stroke-dasharray:none;stroke-opacity:1"
       id="path438" /><path
       d="m 22315,20020 h 491"
       style="fill:none;stroke:#000000;stroke-width:73.599;stroke-linecap:butt;stroke-linejoin:miter;stroke-miterlimit:10;stroke-dasharray:none;stroke-opacity:1"
       id="path440" /><path
       d="m 23051,20020 h 491"
       style="fill:none;stroke:#000000;stroke-width:73.599;stroke-linecap:butt;stroke-linejoin:miter;stroke-miterlimit:10;stroke-dasharray:none;stroke-opacity:1"
       id="path442" /><path
       d="m 23787,20020 h 491"
       style="fill:none;stroke:#000000;stroke-width:73.599;stroke-linecap:butt;stroke-linejoin:miter;stroke-miterlimit:10;stroke-dasharray:none;stroke-opacity:1"
       id="path444" /><path
       d="m 24523,20020 h 491"
       style="fill:none;stroke:#000000;stroke-width:73.599;stroke-linecap:butt;stroke-linejoin:miter;stroke-miterlimit:10;stroke-dasharray:none;stroke-opacity:1"
       id="path446" /><path
       d="m 25259,20020 h 246"
       style="fill:none;stroke:#000000;stroke-width:73.599;stroke-linecap:butt;stroke-linejoin:miter;stroke-miterlimit:10;stroke-dasharray:none;stroke-opacity:1"
       id="path448" /><path
       d="m 23719,20020 c 0,105.432 85.568,191 191,191 105.432,0 191,-85.568 191,-191 0,-105.432 -85.568,-191 -191,-191 -105.432,0 -191,85.568 -191,191"
       style="fill:#a0a0a0;fill-opacity:1;fill-rule:nonzero;stroke:#a0a0a0;stroke-width:73.599;stroke-linecap:butt;stroke-linejoin:miter;stroke-miterlimit:10;stroke-dasharray:none;stroke-opacity:1"
       id="path450" /><g
       id="g452"><text
         transform="matrix(1,0,0,-1,26016,20929)"
         style="font-variant:normal;font-weight:normal;font-size:810px;font-family:TimesNewRomanPSMT;-inkscape-font-specification:TimesNewRomanPSMT;writing-mode:lr-tb;fill:#000000;fill-opacity:1;fill-rule:nonzero;stroke:none"
         id="text456"><tspan
           x="0 224.37 629.37 1214.1899 1416.6899 1641.0601 2046.0601 2270.4299 2629.26 3034.26 3349.3501 3573.72 3798.0901"
           y="0"
           sodipodi:role="line"
           id="tspan454">low intensity</tspan></text></g><g
       id="g458"><text
         transform="matrix(1,0,0,-1,26016,19737)"
         style="font-variant:normal;font-weight:normal;font-size:810px;font-family:TimesNewRomanPSMT;-inkscape-font-specification:TimesNewRomanPSMT;writing-mode:lr-tb;fill:#000000;fill-opacity:1;fill-rule:nonzero;stroke:none"
         id="text462"><tspan
           x="0 405 629.37 1034.37 1439.37 1641.87 1866.24 2271.24 2495.6101 2854.4399 3259.4399 3574.53 3798.8999 4023.27"
           y="0"
           sodipodi:role="line"
           id="tspan460">high intensity</tspan></text></g><g
       id="g464"><text
         transform="matrix(1,0,0,-1,3647,980)"
         style="font-variant:normal;font-weight:normal;font-size:810px;font-family:TimesNewRomanPSMT;-inkscape-font-specification:TimesNewRomanPSMT;writing-mode:lr-tb;fill:#000000;fill-opacity:1;fill-rule:nonzero;stroke:none"
         id="text468"><tspan
           x="0 450.35999 855.35999 1260.36 1530.09 1888.92 2247.75 2472.1201 2674.6201 3259.4399 3753.54 4203.8999 4654.2598 4856.7598 5261.7598 5666.7598 6071.7598 6476.7598 6679.2598 7038.0898 7443.0898 7848.0898 8050.5898 8455.5898 8860.5898 9265.5898"
           y="0"
           sodipodi:role="line"
           id="tspan466">Source: NLSS 1995 and 2003</tspan></text></g><g
       id="g470" /><g
       id="g472"><text
         transform="matrix(1,0,0,-1,6284.6162,22772)"
         style="font-variant:normal;font-weight:normal;font-size:1079px;font-family:TimesNewRomanPSMT;-inkscape-font-specification:TimesNewRomanPSMT;writing-mode:lr-tb;fill:#000000;fill-opacity:1;fill-rule:nonzero;stroke:none"
         id="text476"><tspan
           x="0 779.03802 1077.921 1617.421 2156.9209 2634.918 3054.6489 3353.532 3623.282 4281.4722 4759.4692 5298.9692 5776.9658 6075.8491 6345.5991 6885.0991 7244.4058 7514.1558 8114.0801 8653.5801 9012.8867 9851.2695 10329.267 10628.15 10897.9 11556.09 12095.59 12635.09 13113.087 13591.084 13889.967 14188.85 14728.35 15267.85 15537.6 16077.1 16616.6 16886.35 17665.389 18204.889 18682.885 18952.635 19251.518 19791.018 20060.768 20600.268 21139.768 21679.268"
           y="0"
           sodipodi:role="line"
           id="tspan474">Highest Level of Formal Education by Age in 1975</tspan></text></g></g></svg>
