<?xml version="1.0" encoding="UTF-8" standalone="no"?>
<svg
   xmlns:dc="http://purl.org/dc/elements/1.1/"
   xmlns:cc="http://creativecommons.org/ns#"
   xmlns:rdf="http://www.w3.org/1999/02/22-rdf-syntax-ns#"
   xmlns:svg="http://www.w3.org/2000/svg"
   xmlns="http://www.w3.org/2000/svg"
   xmlns:sodipodi="http://sodipodi.sourceforge.net/DTD/sodipodi-0.dtd"
   xmlns:inkscape="http://www.inkscape.org/namespaces/inkscape"
   version="1.1"
   id="svg2"
   xml:space="preserve"
   width="299.51999"
   height="229.632"
   viewBox="0 0 299.51999 229.632"
   sodipodi:docname="read_Figure2.svg"
   inkscape:version="1.0.1 (0767f8302a, 2020-10-17)"><metadata
     id="metadata8"><rdf:RDF><cc:Work
         rdf:about=""><dc:format>image/svg+xml</dc:format><dc:type
           rdf:resource="http://purl.org/dc/dcmitype/StillImage" /><dc:title></dc:title></cc:Work></rdf:RDF></metadata><defs
     id="defs6" /><sodipodi:namedview
     pagecolor="#ffffff"
     bordercolor="#666666"
     borderopacity="1"
     objecttolerance="10"
     gridtolerance="10"
     guidetolerance="10"
     inkscape:pageopacity="0"
     inkscape:pageshadow="2"
     inkscape:window-width="781"
     inkscape:window-height="480"
     id="namedview4"
     showgrid="false"
     inkscape:zoom="3.8235089"
     inkscape:cx="149.75999"
     inkscape:cy="114.816"
     inkscape:window-x="67"
     inkscape:window-y="27"
     inkscape:window-maximized="0"
     inkscape:current-layer="g10" /><g
     id="g10"
     inkscape:groupmode="layer"
     inkscape:label="read_Figure2"
     transform="matrix(0.00936,0,0,-0.00936,0,229.632)"><path
       d="M 0,0 H 32000 V 24533 H 0 Z"
       style="fill:#ffffff;fill-opacity:1;fill-rule:nonzero;stroke:#ffffff;stroke-width:49.066;stroke-linecap:butt;stroke-linejoin:miter;stroke-miterlimit:10;stroke-dasharray:none;stroke-opacity:1"
       id="path12" /><path
       d="M 3647,5470 H 31141 V 22300 H 3647 Z"
       style="fill:none;stroke:#000000;stroke-width:49.066;stroke-linecap:butt;stroke-linejoin:miter;stroke-miterlimit:10;stroke-dasharray:none;stroke-opacity:1"
       id="path14" /><path
       d="M 14346,5470 V 22300"
       style="fill:none;stroke:#303030;stroke-width:73.599;stroke-linecap:butt;stroke-linejoin:miter;stroke-miterlimit:10;stroke-dasharray:none;stroke-opacity:1"
       id="path16" /><path
       d="M 30601,6897 28569,6220"
       style="fill:none;stroke:#000000;stroke-width:73.599;stroke-linecap:round;stroke-linejoin:miter;stroke-miterlimit:10;stroke-dasharray:none;stroke-opacity:1"
       id="path18" /><path
       d="M 28569,6220 26537,8434"
       style="fill:none;stroke:#000000;stroke-width:73.599;stroke-linecap:round;stroke-linejoin:miter;stroke-miterlimit:10;stroke-dasharray:none;stroke-opacity:1"
       id="path20" /><path
       d="M 26537,8434 24505,6738"
       style="fill:none;stroke:#000000;stroke-width:73.599;stroke-linecap:round;stroke-linejoin:miter;stroke-miterlimit:10;stroke-dasharray:none;stroke-opacity:1"
       id="path22" /><path
       d="m 24505,6738 -2032,3814"
       style="fill:none;stroke:#000000;stroke-width:73.599;stroke-linecap:round;stroke-linejoin:miter;stroke-miterlimit:10;stroke-dasharray:none;stroke-opacity:1"
       id="path24" /><path
       d="M 22473,10552 20441,8644"
       style="fill:none;stroke:#000000;stroke-width:73.599;stroke-linecap:round;stroke-linejoin:miter;stroke-miterlimit:10;stroke-dasharray:none;stroke-opacity:1"
       id="path26" /><path
       d="M 20441,8644 18409,7497"
       style="fill:none;stroke:#000000;stroke-width:73.599;stroke-linecap:round;stroke-linejoin:miter;stroke-miterlimit:10;stroke-dasharray:none;stroke-opacity:1"
       id="path28" /><path
       d="M 18409,7497 16378,8639"
       style="fill:none;stroke:#000000;stroke-width:73.599;stroke-linecap:round;stroke-linejoin:miter;stroke-miterlimit:10;stroke-dasharray:none;stroke-opacity:1"
       id="path30" /><path
       d="m 16378,8639 -2032,68"
       style="fill:none;stroke:#000000;stroke-width:73.599;stroke-linecap:round;stroke-linejoin:miter;stroke-miterlimit:10;stroke-dasharray:none;stroke-opacity:1"
       id="path32" /><path
       d="M 14346,8707 12314,9879"
       style="fill:none;stroke:#000000;stroke-width:73.599;stroke-linecap:round;stroke-linejoin:miter;stroke-miterlimit:10;stroke-dasharray:none;stroke-opacity:1"
       id="path34" /><path
       d="m 12314,9879 -2032,945"
       style="fill:none;stroke:#000000;stroke-width:73.599;stroke-linecap:round;stroke-linejoin:miter;stroke-miterlimit:10;stroke-dasharray:none;stroke-opacity:1"
       id="path36" /><path
       d="M 10282,10824 8250,12839"
       style="fill:none;stroke:#000000;stroke-width:73.599;stroke-linecap:round;stroke-linejoin:miter;stroke-miterlimit:10;stroke-dasharray:none;stroke-opacity:1"
       id="path38" /><path
       d="m 8250,12839 -2032,168"
       style="fill:none;stroke:#000000;stroke-width:73.599;stroke-linecap:round;stroke-linejoin:miter;stroke-miterlimit:10;stroke-dasharray:none;stroke-opacity:1"
       id="path40" /><path
       d="m 6218,13007 -2032,432"
       style="fill:none;stroke:#000000;stroke-width:73.599;stroke-linecap:round;stroke-linejoin:miter;stroke-miterlimit:10;stroke-dasharray:none;stroke-opacity:1"
       id="path42" /><path
       d="m 30331,6897 270,-270 270,270 -270,270 z"
       style="fill:#606060;fill-opacity:1;fill-rule:nonzero;stroke:#606060;stroke-width:73.599;stroke-linecap:butt;stroke-linejoin:miter;stroke-miterlimit:10;stroke-dasharray:none;stroke-opacity:1"
       id="path44" /><path
       d="m 28299,6220 270,-270 270,270 -270,270 z"
       style="fill:#606060;fill-opacity:1;fill-rule:nonzero;stroke:#606060;stroke-width:73.599;stroke-linecap:butt;stroke-linejoin:miter;stroke-miterlimit:10;stroke-dasharray:none;stroke-opacity:1"
       id="path46" /><path
       d="m 26267,8434 270,-270 270,270 -270,270 z"
       style="fill:#606060;fill-opacity:1;fill-rule:nonzero;stroke:#606060;stroke-width:73.599;stroke-linecap:butt;stroke-linejoin:miter;stroke-miterlimit:10;stroke-dasharray:none;stroke-opacity:1"
       id="path48" /><path
       d="m 24235,6738 270,-270 270,270 -270,270 z"
       style="fill:#606060;fill-opacity:1;fill-rule:nonzero;stroke:#606060;stroke-width:73.599;stroke-linecap:butt;stroke-linejoin:miter;stroke-miterlimit:10;stroke-dasharray:none;stroke-opacity:1"
       id="path50" /><path
       d="m 22203,10552 270,-270 270,270 -270,270 z"
       style="fill:#606060;fill-opacity:1;fill-rule:nonzero;stroke:#606060;stroke-width:73.599;stroke-linecap:butt;stroke-linejoin:miter;stroke-miterlimit:10;stroke-dasharray:none;stroke-opacity:1"
       id="path52" /><path
       d="m 20171,8644 270,-270 270,270 -270,270 z"
       style="fill:#606060;fill-opacity:1;fill-rule:nonzero;stroke:#606060;stroke-width:73.599;stroke-linecap:butt;stroke-linejoin:miter;stroke-miterlimit:10;stroke-dasharray:none;stroke-opacity:1"
       id="path54" /><path
       d="m 18139,7497 270,-270 270,270 -270,270 z"
       style="fill:#606060;fill-opacity:1;fill-rule:nonzero;stroke:#606060;stroke-width:73.599;stroke-linecap:butt;stroke-linejoin:miter;stroke-miterlimit:10;stroke-dasharray:none;stroke-opacity:1"
       id="path56" /><path
       d="m 16108,8639 270,-270 270,270 -270,270 z"
       style="fill:#606060;fill-opacity:1;fill-rule:nonzero;stroke:#606060;stroke-width:73.599;stroke-linecap:butt;stroke-linejoin:miter;stroke-miterlimit:10;stroke-dasharray:none;stroke-opacity:1"
       id="path58" /><path
       d="m 14076,8707 270,-270 270,270 -270,270 z"
       style="fill:#606060;fill-opacity:1;fill-rule:nonzero;stroke:#606060;stroke-width:73.599;stroke-linecap:butt;stroke-linejoin:miter;stroke-miterlimit:10;stroke-dasharray:none;stroke-opacity:1"
       id="path60" /><path
       d="m 12044,9879 270,-270 270,270 -270,270 z"
       style="fill:#606060;fill-opacity:1;fill-rule:nonzero;stroke:#606060;stroke-width:73.599;stroke-linecap:butt;stroke-linejoin:miter;stroke-miterlimit:10;stroke-dasharray:none;stroke-opacity:1"
       id="path62" /><path
       d="m 10012,10824 270,-270 270,270 -270,270 z"
       style="fill:#606060;fill-opacity:1;fill-rule:nonzero;stroke:#606060;stroke-width:73.599;stroke-linecap:butt;stroke-linejoin:miter;stroke-miterlimit:10;stroke-dasharray:none;stroke-opacity:1"
       id="path64" /><path
       d="m 7980,12839 270,-270 270,270 -270,270 z"
       style="fill:#606060;fill-opacity:1;fill-rule:nonzero;stroke:#606060;stroke-width:73.599;stroke-linecap:butt;stroke-linejoin:miter;stroke-miterlimit:10;stroke-dasharray:none;stroke-opacity:1"
       id="path66" /><path
       d="m 5948,13007 270,-270 270,270 -270,270 z"
       style="fill:#606060;fill-opacity:1;fill-rule:nonzero;stroke:#606060;stroke-width:73.599;stroke-linecap:butt;stroke-linejoin:miter;stroke-miterlimit:10;stroke-dasharray:none;stroke-opacity:1"
       id="path68" /><path
       d="m 3916,13439 270,-270 270,270 -270,270 z"
       style="fill:#606060;fill-opacity:1;fill-rule:nonzero;stroke:#606060;stroke-width:73.599;stroke-linecap:butt;stroke-linejoin:miter;stroke-miterlimit:10;stroke-dasharray:none;stroke-opacity:1"
       id="path70" /><path
       d="m 30601,7409 -458,175"
       style="fill:none;stroke:#000000;stroke-width:73.599;stroke-linecap:butt;stroke-linejoin:miter;stroke-miterlimit:10;stroke-dasharray:none;stroke-opacity:1"
       id="path72" /><path
       d="m 29914,7672 -459,175"
       style="fill:none;stroke:#000000;stroke-width:73.599;stroke-linecap:butt;stroke-linejoin:miter;stroke-miterlimit:10;stroke-dasharray:none;stroke-opacity:1"
       id="path74" /><path
       d="m 29226,7935 -458,174"
       style="fill:none;stroke:#000000;stroke-width:73.599;stroke-linecap:butt;stroke-linejoin:miter;stroke-miterlimit:10;stroke-dasharray:none;stroke-opacity:1"
       id="path76" /><path
       d="m 28536,8189 -487,57"
       style="fill:none;stroke:#000000;stroke-width:73.599;stroke-linecap:butt;stroke-linejoin:miter;stroke-miterlimit:10;stroke-dasharray:none;stroke-opacity:1"
       id="path78" /><path
       d="m 27805,8275 -487,57"
       style="fill:none;stroke:#000000;stroke-width:73.599;stroke-linecap:butt;stroke-linejoin:miter;stroke-miterlimit:10;stroke-dasharray:none;stroke-opacity:1"
       id="path80" /><path
       d="m 27074,8360 -488,57"
       style="fill:none;stroke:#000000;stroke-width:73.599;stroke-linecap:butt;stroke-linejoin:miter;stroke-miterlimit:10;stroke-dasharray:none;stroke-opacity:1"
       id="path82" /><path
       d="m 26351,8483 -466,153"
       style="fill:none;stroke:#000000;stroke-width:73.599;stroke-linecap:butt;stroke-linejoin:miter;stroke-miterlimit:10;stroke-dasharray:none;stroke-opacity:1"
       id="path84" /><path
       d="m 25652,8712 -467,152"
       style="fill:none;stroke:#000000;stroke-width:73.599;stroke-linecap:butt;stroke-linejoin:miter;stroke-miterlimit:10;stroke-dasharray:none;stroke-opacity:1"
       id="path86" /><path
       d="m 24952,8940 -447,146"
       style="fill:none;stroke:#000000;stroke-width:73.599;stroke-linecap:butt;stroke-linejoin:miter;stroke-miterlimit:10;stroke-dasharray:none;stroke-opacity:1"
       id="path88" /><path
       d="m 24505,9086 -20,-6"
       style="fill:none;stroke:#000000;stroke-width:73.599;stroke-linecap:butt;stroke-linejoin:miter;stroke-miterlimit:10;stroke-dasharray:none;stroke-opacity:1"
       id="path90" /><path
       d="m 24250,9011 -471,-139"
       style="fill:none;stroke:#000000;stroke-width:73.599;stroke-linecap:butt;stroke-linejoin:miter;stroke-miterlimit:10;stroke-dasharray:none;stroke-opacity:1"
       id="path92" /><path
       d="m 23544,8802 -471,-138"
       style="fill:none;stroke:#000000;stroke-width:73.599;stroke-linecap:butt;stroke-linejoin:miter;stroke-miterlimit:10;stroke-dasharray:none;stroke-opacity:1"
       id="path94" /><path
       d="m 22838,8594 -365,-107"
       style="fill:none;stroke:#000000;stroke-width:73.599;stroke-linecap:butt;stroke-linejoin:miter;stroke-miterlimit:10;stroke-dasharray:none;stroke-opacity:1"
       id="path96" /><path
       d="m 22473,8487 -97,-54"
       style="fill:none;stroke:#000000;stroke-width:73.599;stroke-linecap:butt;stroke-linejoin:miter;stroke-miterlimit:10;stroke-dasharray:none;stroke-opacity:1"
       id="path98" /><path
       d="m 22161,8315 -430,-237"
       style="fill:none;stroke:#000000;stroke-width:73.599;stroke-linecap:butt;stroke-linejoin:miter;stroke-miterlimit:10;stroke-dasharray:none;stroke-opacity:1"
       id="path100" /><path
       d="m 21517,7960 -430,-237"
       style="fill:none;stroke:#000000;stroke-width:73.599;stroke-linecap:butt;stroke-linejoin:miter;stroke-miterlimit:10;stroke-dasharray:none;stroke-opacity:1"
       id="path102" /><path
       d="m 20872,7605 -429,-238"
       style="fill:none;stroke:#000000;stroke-width:73.599;stroke-linecap:butt;stroke-linejoin:miter;stroke-miterlimit:10;stroke-dasharray:none;stroke-opacity:1"
       id="path104" /><path
       d="m 20280,7550 -325,367"
       style="fill:none;stroke:#000000;stroke-width:73.599;stroke-linecap:butt;stroke-linejoin:miter;stroke-miterlimit:10;stroke-dasharray:none;stroke-opacity:1"
       id="path106" /><path
       d="m 19792,8101 -325,368"
       style="fill:none;stroke:#000000;stroke-width:73.599;stroke-linecap:butt;stroke-linejoin:miter;stroke-miterlimit:10;stroke-dasharray:none;stroke-opacity:1"
       id="path108" /><path
       d="m 19304,8652 -325,368"
       style="fill:none;stroke:#000000;stroke-width:73.599;stroke-linecap:butt;stroke-linejoin:miter;stroke-miterlimit:10;stroke-dasharray:none;stroke-opacity:1"
       id="path110" /><path
       d="m 18817,9204 -325,367"
       style="fill:none;stroke:#000000;stroke-width:73.599;stroke-linecap:butt;stroke-linejoin:miter;stroke-miterlimit:10;stroke-dasharray:none;stroke-opacity:1"
       id="path112" /><path
       d="m 18289,9654 -489,-46"
       style="fill:none;stroke:#000000;stroke-width:73.599;stroke-linecap:butt;stroke-linejoin:miter;stroke-miterlimit:10;stroke-dasharray:none;stroke-opacity:1"
       id="path114" /><path
       d="m 17556,9585 -489,-46"
       style="fill:none;stroke:#000000;stroke-width:73.599;stroke-linecap:butt;stroke-linejoin:miter;stroke-miterlimit:10;stroke-dasharray:none;stroke-opacity:1"
       id="path116" /><path
       d="m 16823,9517 -445,-42"
       style="fill:none;stroke:#000000;stroke-width:73.599;stroke-linecap:butt;stroke-linejoin:miter;stroke-miterlimit:10;stroke-dasharray:none;stroke-opacity:1"
       id="path118" /><path
       d="m 16378,9475 -43,-8"
       style="fill:none;stroke:#000000;stroke-width:73.599;stroke-linecap:butt;stroke-linejoin:miter;stroke-miterlimit:10;stroke-dasharray:none;stroke-opacity:1"
       id="path120" /><path
       d="m 16094,9424 -484,-86"
       style="fill:none;stroke:#000000;stroke-width:73.599;stroke-linecap:butt;stroke-linejoin:miter;stroke-miterlimit:10;stroke-dasharray:none;stroke-opacity:1"
       id="path122" /><path
       d="m 15369,9295 -483,-86"
       style="fill:none;stroke:#000000;stroke-width:73.599;stroke-linecap:butt;stroke-linejoin:miter;stroke-miterlimit:10;stroke-dasharray:none;stroke-opacity:1"
       id="path124" /><path
       d="m 14645,9166 -299,-53"
       style="fill:none;stroke:#000000;stroke-width:73.599;stroke-linecap:butt;stroke-linejoin:miter;stroke-miterlimit:10;stroke-dasharray:none;stroke-opacity:1"
       id="path126" /><path
       d="m 14346,9113 -86,167"
       style="fill:none;stroke:#000000;stroke-width:73.599;stroke-linecap:butt;stroke-linejoin:miter;stroke-miterlimit:10;stroke-dasharray:none;stroke-opacity:1"
       id="path128" /><path
       d="m 14148,9498 -225,436"
       style="fill:none;stroke:#000000;stroke-width:73.599;stroke-linecap:butt;stroke-linejoin:miter;stroke-miterlimit:10;stroke-dasharray:none;stroke-opacity:1"
       id="path130" /><path
       d="m 13811,10152 -224,437"
       style="fill:none;stroke:#000000;stroke-width:73.599;stroke-linecap:butt;stroke-linejoin:miter;stroke-miterlimit:10;stroke-dasharray:none;stroke-opacity:1"
       id="path132" /><path
       d="m 13475,10807 -224,437"
       style="fill:none;stroke:#000000;stroke-width:73.599;stroke-linecap:butt;stroke-linejoin:miter;stroke-miterlimit:10;stroke-dasharray:none;stroke-opacity:1"
       id="path134" /><path
       d="m 13139,11462 -224,437"
       style="fill:none;stroke:#000000;stroke-width:73.599;stroke-linecap:butt;stroke-linejoin:miter;stroke-miterlimit:10;stroke-dasharray:none;stroke-opacity:1"
       id="path136" /><path
       d="m 12802,12117 -224,436"
       style="fill:none;stroke:#000000;stroke-width:73.599;stroke-linecap:butt;stroke-linejoin:miter;stroke-miterlimit:10;stroke-dasharray:none;stroke-opacity:1"
       id="path138" /><path
       d="m 12466,12771 -152,297"
       style="fill:none;stroke:#000000;stroke-width:73.599;stroke-linecap:butt;stroke-linejoin:miter;stroke-miterlimit:10;stroke-dasharray:none;stroke-opacity:1"
       id="path140" /><path
       d="m 12314,13068 -119,103"
       style="fill:none;stroke:#000000;stroke-width:73.599;stroke-linecap:butt;stroke-linejoin:miter;stroke-miterlimit:10;stroke-dasharray:none;stroke-opacity:1"
       id="path142" /><path
       d="m 12009,13331 -372,320"
       style="fill:none;stroke:#000000;stroke-width:73.599;stroke-linecap:butt;stroke-linejoin:miter;stroke-miterlimit:10;stroke-dasharray:none;stroke-opacity:1"
       id="path144" /><path
       d="m 11452,13811 -373,320"
       style="fill:none;stroke:#000000;stroke-width:73.599;stroke-linecap:butt;stroke-linejoin:miter;stroke-miterlimit:10;stroke-dasharray:none;stroke-opacity:1"
       id="path146" /><path
       d="m 10894,14291 -372,320"
       style="fill:none;stroke:#000000;stroke-width:73.599;stroke-linecap:butt;stroke-linejoin:miter;stroke-miterlimit:10;stroke-dasharray:none;stroke-opacity:1"
       id="path148" /><path
       d="m 10336,14771 -54,47"
       style="fill:none;stroke:#000000;stroke-width:73.599;stroke-linecap:butt;stroke-linejoin:miter;stroke-miterlimit:10;stroke-dasharray:none;stroke-opacity:1"
       id="path150" /><path
       d="m 10282,14818 -251,336"
       style="fill:none;stroke:#000000;stroke-width:73.599;stroke-linecap:butt;stroke-linejoin:miter;stroke-miterlimit:10;stroke-dasharray:none;stroke-opacity:1"
       id="path152" /><path
       d="m 9885,15351 -294,393"
       style="fill:none;stroke:#000000;stroke-width:73.599;stroke-linecap:butt;stroke-linejoin:miter;stroke-miterlimit:10;stroke-dasharray:none;stroke-opacity:1"
       id="path154" /><path
       d="m 9444,15940 -293,394"
       style="fill:none;stroke:#000000;stroke-width:73.599;stroke-linecap:butt;stroke-linejoin:miter;stroke-miterlimit:10;stroke-dasharray:none;stroke-opacity:1"
       id="path156" /><path
       d="m 9004,16530 -293,394"
       style="fill:none;stroke:#000000;stroke-width:73.599;stroke-linecap:butt;stroke-linejoin:miter;stroke-miterlimit:10;stroke-dasharray:none;stroke-opacity:1"
       id="path158" /><path
       d="m 8565,17120 -293,394"
       style="fill:none;stroke:#000000;stroke-width:73.599;stroke-linecap:butt;stroke-linejoin:miter;stroke-miterlimit:10;stroke-dasharray:none;stroke-opacity:1"
       id="path160" /><path
       d="m 8104,17394 -344,-350"
       style="fill:none;stroke:#000000;stroke-width:73.599;stroke-linecap:butt;stroke-linejoin:miter;stroke-miterlimit:10;stroke-dasharray:none;stroke-opacity:1"
       id="path162" /><path
       d="m 7588,16869 -344,-350"
       style="fill:none;stroke:#000000;stroke-width:73.599;stroke-linecap:butt;stroke-linejoin:miter;stroke-miterlimit:10;stroke-dasharray:none;stroke-opacity:1"
       id="path164" /><path
       d="m 7072,16344 -343,-350"
       style="fill:none;stroke:#000000;stroke-width:73.599;stroke-linecap:butt;stroke-linejoin:miter;stroke-miterlimit:10;stroke-dasharray:none;stroke-opacity:1"
       id="path166" /><path
       d="m 6557,15819 -339,-346"
       style="fill:none;stroke:#000000;stroke-width:73.599;stroke-linecap:butt;stroke-linejoin:miter;stroke-miterlimit:10;stroke-dasharray:none;stroke-opacity:1"
       id="path168" /><path
       d="m 6218,15473 -3,6"
       style="fill:none;stroke:#000000;stroke-width:73.599;stroke-linecap:butt;stroke-linejoin:miter;stroke-miterlimit:10;stroke-dasharray:none;stroke-opacity:1"
       id="path170" /><path
       d="m 6097,15694 -236,430"
       style="fill:none;stroke:#000000;stroke-width:73.599;stroke-linecap:butt;stroke-linejoin:miter;stroke-miterlimit:10;stroke-dasharray:none;stroke-opacity:1"
       id="path172" /><path
       d="m 5744,16339 -236,430"
       style="fill:none;stroke:#000000;stroke-width:73.599;stroke-linecap:butt;stroke-linejoin:miter;stroke-miterlimit:10;stroke-dasharray:none;stroke-opacity:1"
       id="path174" /><path
       d="m 5390,16985 -236,430"
       style="fill:none;stroke:#000000;stroke-width:73.599;stroke-linecap:butt;stroke-linejoin:miter;stroke-miterlimit:10;stroke-dasharray:none;stroke-opacity:1"
       id="path176" /><path
       d="m 5036,17630 -236,430"
       style="fill:none;stroke:#000000;stroke-width:73.599;stroke-linecap:butt;stroke-linejoin:miter;stroke-miterlimit:10;stroke-dasharray:none;stroke-opacity:1"
       id="path178" /><path
       d="m 4682,18275 -236,431"
       style="fill:none;stroke:#000000;stroke-width:73.599;stroke-linecap:butt;stroke-linejoin:miter;stroke-miterlimit:10;stroke-dasharray:none;stroke-opacity:1"
       id="path180" /><path
       d="m 4328,18921 -142,258"
       style="fill:none;stroke:#000000;stroke-width:73.599;stroke-linecap:butt;stroke-linejoin:miter;stroke-miterlimit:10;stroke-dasharray:none;stroke-opacity:1"
       id="path182" /><path
       d="m 30410,7409 c 0,105.4321 85.568,191 191,191 105.432,0 191,-85.5679 191,-191 0,-105.4321 -85.568,-191 -191,-191 -105.432,0 -191,85.5679 -191,191"
       style="fill:#a0a0a0;fill-opacity:1;fill-rule:nonzero;stroke:#a0a0a0;stroke-width:73.599;stroke-linecap:butt;stroke-linejoin:miter;stroke-miterlimit:10;stroke-dasharray:none;stroke-opacity:1"
       id="path184" /><path
       d="m 28378,8185 c 0,105.4316 85.568,191 191,191 105.432,0 191,-85.5684 191,-191 0,-105.4321 -85.568,-191 -191,-191 -105.432,0 -191,85.5679 -191,191"
       style="fill:#a0a0a0;fill-opacity:1;fill-rule:nonzero;stroke:#a0a0a0;stroke-width:73.599;stroke-linecap:butt;stroke-linejoin:miter;stroke-miterlimit:10;stroke-dasharray:none;stroke-opacity:1"
       id="path186" /><path
       d="m 26346,8423 c 0,105.4316 85.568,191 191,191 105.432,0 191,-85.5684 191,-191 0,-105.4316 -85.568,-191 -191,-191 -105.432,0 -191,85.5684 -191,191"
       style="fill:#a0a0a0;fill-opacity:1;fill-rule:nonzero;stroke:#a0a0a0;stroke-width:73.599;stroke-linecap:butt;stroke-linejoin:miter;stroke-miterlimit:10;stroke-dasharray:none;stroke-opacity:1"
       id="path188" /><path
       d="m 24314,9086 c 0,105.4316 85.568,191 191,191 105.432,0 191,-85.5684 191,-191 0,-105.4316 -85.568,-191 -191,-191 -105.432,0 -191,85.5684 -191,191"
       style="fill:#a0a0a0;fill-opacity:1;fill-rule:nonzero;stroke:#a0a0a0;stroke-width:73.599;stroke-linecap:butt;stroke-linejoin:miter;stroke-miterlimit:10;stroke-dasharray:none;stroke-opacity:1"
       id="path190" /><path
       d="m 22282,8487 c 0,105.4316 85.568,191 191,191 105.432,0 191,-85.5684 191,-191 0,-105.4316 -85.568,-191 -191,-191 -105.432,0 -191,85.5684 -191,191"
       style="fill:#a0a0a0;fill-opacity:1;fill-rule:nonzero;stroke:#a0a0a0;stroke-width:73.599;stroke-linecap:butt;stroke-linejoin:miter;stroke-miterlimit:10;stroke-dasharray:none;stroke-opacity:1"
       id="path192" /><path
       d="m 20250,7367 c 0,105.4321 85.568,191 191,191 105.432,0 191,-85.5679 191,-191 0,-105.4321 -85.568,-191 -191,-191 -105.432,0 -191,85.5679 -191,191"
       style="fill:#a0a0a0;fill-opacity:1;fill-rule:nonzero;stroke:#a0a0a0;stroke-width:73.599;stroke-linecap:butt;stroke-linejoin:miter;stroke-miterlimit:10;stroke-dasharray:none;stroke-opacity:1"
       id="path194" /><path
       d="m 18218,9665 c 0,105.4316 85.568,191 191,191 105.432,0 191,-85.5684 191,-191 0,-105.4316 -85.568,-191 -191,-191 -105.432,0 -191,85.5684 -191,191"
       style="fill:#a0a0a0;fill-opacity:1;fill-rule:nonzero;stroke:#a0a0a0;stroke-width:73.599;stroke-linecap:butt;stroke-linejoin:miter;stroke-miterlimit:10;stroke-dasharray:none;stroke-opacity:1"
       id="path196" /><path
       d="m 16187,9475 c 0,105.4316 85.568,191 191,191 105.432,0 191,-85.5684 191,-191 0,-105.4316 -85.568,-191 -191,-191 -105.432,0 -191,85.5684 -191,191"
       style="fill:#a0a0a0;fill-opacity:1;fill-rule:nonzero;stroke:#a0a0a0;stroke-width:73.599;stroke-linecap:butt;stroke-linejoin:miter;stroke-miterlimit:10;stroke-dasharray:none;stroke-opacity:1"
       id="path198" /><path
       d="m 14155,9113 c 0,105.4316 85.568,191 191,191 105.432,0 191,-85.5684 191,-191 0,-105.4316 -85.568,-191 -191,-191 -105.432,0 -191,85.5684 -191,191"
       style="fill:#a0a0a0;fill-opacity:1;fill-rule:nonzero;stroke:#a0a0a0;stroke-width:73.599;stroke-linecap:butt;stroke-linejoin:miter;stroke-miterlimit:10;stroke-dasharray:none;stroke-opacity:1"
       id="path200" /><path
       d="m 12123,13068 c 0,105.432 85.568,191 191,191 105.432,0 191,-85.568 191,-191 0,-105.432 -85.568,-191 -191,-191 -105.432,0 -191,85.568 -191,191"
       style="fill:#a0a0a0;fill-opacity:1;fill-rule:nonzero;stroke:#a0a0a0;stroke-width:73.599;stroke-linecap:butt;stroke-linejoin:miter;stroke-miterlimit:10;stroke-dasharray:none;stroke-opacity:1"
       id="path202" /><path
       d="m 10091,14818 c 0,105.432 85.568,191 191,191 105.432,0 191,-85.568 191,-191 0,-105.432 -85.568,-191 -191,-191 -105.432,0 -191,85.568 -191,191"
       style="fill:#a0a0a0;fill-opacity:1;fill-rule:nonzero;stroke:#a0a0a0;stroke-width:73.599;stroke-linecap:butt;stroke-linejoin:miter;stroke-miterlimit:10;stroke-dasharray:none;stroke-opacity:1"
       id="path204" /><path
       d="m 8059,17543 c 0,105.432 85.5679,191 191,191 105.4316,0 191,-85.568 191,-191 0,-105.432 -85.5684,-191 -191,-191 -105.4321,0 -191,85.568 -191,191"
       style="fill:#a0a0a0;fill-opacity:1;fill-rule:nonzero;stroke:#a0a0a0;stroke-width:73.599;stroke-linecap:butt;stroke-linejoin:miter;stroke-miterlimit:10;stroke-dasharray:none;stroke-opacity:1"
       id="path206" /><path
       d="m 6027,15473 c 0,105.432 85.5679,191 191,191 105.4321,0 191,-85.568 191,-191 0,-105.432 -85.5679,-191 -191,-191 -105.4321,0 -191,85.568 -191,191"
       style="fill:#a0a0a0;fill-opacity:1;fill-rule:nonzero;stroke:#a0a0a0;stroke-width:73.599;stroke-linecap:butt;stroke-linejoin:miter;stroke-miterlimit:10;stroke-dasharray:none;stroke-opacity:1"
       id="path208" /><path
       d="m 3995,19179 c 0,105.432 85.5681,191 191,191 105.4321,0 191,-85.568 191,-191 0,-105.432 -85.5679,-191 -191,-191 -105.4319,0 -191,85.568 -191,191"
       style="fill:#a0a0a0;fill-opacity:1;fill-rule:nonzero;stroke:#a0a0a0;stroke-width:73.599;stroke-linecap:butt;stroke-linejoin:miter;stroke-miterlimit:10;stroke-dasharray:none;stroke-opacity:1"
       id="path210" /><path
       d="M 3647,5470 V 22300"
       style="fill:none;stroke:#000000;stroke-width:49.066;stroke-linecap:butt;stroke-linejoin:miter;stroke-miterlimit:10;stroke-dasharray:none;stroke-opacity:1"
       id="path212" /><path
       d="M 3647,6009 H 3306"
       style="fill:none;stroke:#000000;stroke-width:49.066;stroke-linecap:butt;stroke-linejoin:miter;stroke-miterlimit:10;stroke-dasharray:none;stroke-opacity:1"
       id="path214" /><g
       id="g216" /><g
       id="g218"><text
         transform="matrix(0,1,1,0,2893,5806.5)"
         style="font-variant:normal;font-weight:normal;font-size:810px;font-family:TimesNewRomanPSMT;-inkscape-font-specification:TimesNewRomanPSMT;writing-mode:lr-tb;fill:#000000;fill-opacity:1;fill-rule:nonzero;stroke:none"
         id="text222"><tspan
           x="0"
           y="0"
           id="tspan220">0</tspan></text></g><path
       d="M 3647,9947 H 3306"
       style="fill:none;stroke:#000000;stroke-width:49.066;stroke-linecap:butt;stroke-linejoin:miter;stroke-miterlimit:10;stroke-dasharray:none;stroke-opacity:1"
       id="path224" /><g
       id="g226" /><g
       id="g228"><text
         transform="matrix(0,1,1,0,2893,9643.25)"
         style="font-variant:normal;font-weight:normal;font-size:810px;font-family:TimesNewRomanPSMT;-inkscape-font-specification:TimesNewRomanPSMT;writing-mode:lr-tb;fill:#000000;fill-opacity:1;fill-rule:nonzero;stroke:none"
         id="text232"><tspan
           x="0 202.5"
           y="0"
           sodipodi:role="line"
           id="tspan230">.1</tspan></text></g><path
       d="M 3647,13885 H 3306"
       style="fill:none;stroke:#000000;stroke-width:49.066;stroke-linecap:butt;stroke-linejoin:miter;stroke-miterlimit:10;stroke-dasharray:none;stroke-opacity:1"
       id="path234" /><g
       id="g236" /><g
       id="g238"><text
         transform="matrix(0,1,1,0,2893,13581.25)"
         style="font-variant:normal;font-weight:normal;font-size:810px;font-family:TimesNewRomanPSMT;-inkscape-font-specification:TimesNewRomanPSMT;writing-mode:lr-tb;fill:#000000;fill-opacity:1;fill-rule:nonzero;stroke:none"
         id="text242"><tspan
           x="0 202.5"
           y="0"
           sodipodi:role="line"
           id="tspan240">.2</tspan></text></g><path
       d="M 3647,17823 H 3306"
       style="fill:none;stroke:#000000;stroke-width:49.066;stroke-linecap:butt;stroke-linejoin:miter;stroke-miterlimit:10;stroke-dasharray:none;stroke-opacity:1"
       id="path244" /><g
       id="g246" /><g
       id="g248"><text
         transform="matrix(0,1,1,0,2893,17519.25)"
         style="font-variant:normal;font-weight:normal;font-size:810px;font-family:TimesNewRomanPSMT;-inkscape-font-specification:TimesNewRomanPSMT;writing-mode:lr-tb;fill:#000000;fill-opacity:1;fill-rule:nonzero;stroke:none"
         id="text252"><tspan
           x="0 202.5"
           y="0"
           sodipodi:role="line"
           id="tspan250">.3</tspan></text></g><path
       d="M 3647,21761 H 3306"
       style="fill:none;stroke:#000000;stroke-width:49.066;stroke-linecap:butt;stroke-linejoin:miter;stroke-miterlimit:10;stroke-dasharray:none;stroke-opacity:1"
       id="path254" /><g
       id="g256" /><g
       id="g258"><text
         transform="matrix(0,1,1,0,2893,21457.25)"
         style="font-variant:normal;font-weight:normal;font-size:810px;font-family:TimesNewRomanPSMT;-inkscape-font-specification:TimesNewRomanPSMT;writing-mode:lr-tb;fill:#000000;fill-opacity:1;fill-rule:nonzero;stroke:none"
         id="text262"><tspan
           x="0 202.5"
           y="0"
           sodipodi:role="line"
           id="tspan260">.4</tspan></text></g><g
       id="g264" /><g
       id="g266"><text
         transform="matrix(0,1,1,0,1699,12478.688)"
         style="font-variant:normal;font-weight:normal;font-size:957px;font-family:TimesNewRomanPSMT;-inkscape-font-specification:TimesNewRomanPSMT;writing-mode:lr-tb;fill:#000000;fill-opacity:1;fill-rule:nonzero;stroke:none"
         id="text270"><tspan
           x="0 478.5 902.45099 1221.132 1645.083 2069.0339 2547.5339"
           y="0"
           sodipodi:role="line"
           id="tspan268">percent</tspan></text></g><path
       d="M 3647,5470 H 31141"
       style="fill:none;stroke:#000000;stroke-width:49.066;stroke-linecap:butt;stroke-linejoin:miter;stroke-miterlimit:10;stroke-dasharray:none;stroke-opacity:1"
       id="path272" /><path
       d="M 4187,5470 V 5129"
       style="fill:none;stroke:#000000;stroke-width:49.066;stroke-linecap:butt;stroke-linejoin:miter;stroke-miterlimit:10;stroke-dasharray:none;stroke-opacity:1"
       id="path274" /><g
       id="g276" /><g
       id="g278"><text
         transform="matrix(0.70711,0.70711,0.70711,-0.70711,3623.5156,3994.5156)"
         style="font-variant:normal;font-weight:normal;font-size:810.004px;font-family:TimesNewRomanPSMT;-inkscape-font-specification:TimesNewRomanPSMT;writing-mode:lr-tb;fill:#000000;fill-opacity:1;fill-rule:nonzero;stroke:none"
         id="text282"><tspan
           x="0 405.00183 674.73309"
           y="0"
           sodipodi:role="line"
           id="tspan280">0-1</tspan></text></g><path
       d="M 6219,5470 V 5129"
       style="fill:none;stroke:#000000;stroke-width:49.066;stroke-linecap:butt;stroke-linejoin:miter;stroke-miterlimit:10;stroke-dasharray:none;stroke-opacity:1"
       id="path284" /><g
       id="g286" /><g
       id="g288"><text
         transform="matrix(0.70711,0.70711,0.70711,-0.70711,5655.5156,3994.5156)"
         style="font-variant:normal;font-weight:normal;font-size:810.004px;font-family:TimesNewRomanPSMT;-inkscape-font-specification:TimesNewRomanPSMT;writing-mode:lr-tb;fill:#000000;fill-opacity:1;fill-rule:nonzero;stroke:none"
         id="text292"><tspan
           x="0 405.00183 674.73309"
           y="0"
           sodipodi:role="line"
           id="tspan290">2-3</tspan></text></g><path
       d="M 8251,5470 V 5129"
       style="fill:none;stroke:#000000;stroke-width:49.066;stroke-linecap:butt;stroke-linejoin:miter;stroke-miterlimit:10;stroke-dasharray:none;stroke-opacity:1"
       id="path294" /><g
       id="g296" /><g
       id="g298"><text
         transform="matrix(0.70711,0.70711,0.70711,-0.70711,7687.5156,3994.5156)"
         style="font-variant:normal;font-weight:normal;font-size:810.004px;font-family:TimesNewRomanPSMT;-inkscape-font-specification:TimesNewRomanPSMT;writing-mode:lr-tb;fill:#000000;fill-opacity:1;fill-rule:nonzero;stroke:none"
         id="text302"><tspan
           x="0 405.00183 674.73309"
           y="0"
           sodipodi:role="line"
           id="tspan300">4-5</tspan></text></g><path
       d="M 10283,5470 V 5129"
       style="fill:none;stroke:#000000;stroke-width:49.066;stroke-linecap:butt;stroke-linejoin:miter;stroke-miterlimit:10;stroke-dasharray:none;stroke-opacity:1"
       id="path304" /><g
       id="g306" /><g
       id="g308"><text
         transform="matrix(0.70711,0.70711,0.70711,-0.70711,9719.5156,3994.5156)"
         style="font-variant:normal;font-weight:normal;font-size:810.004px;font-family:TimesNewRomanPSMT;-inkscape-font-specification:TimesNewRomanPSMT;writing-mode:lr-tb;fill:#000000;fill-opacity:1;fill-rule:nonzero;stroke:none"
         id="text312"><tspan
           x="0 405.00183 674.73309"
           y="0"
           sodipodi:role="line"
           id="tspan310">6-7</tspan></text></g><path
       d="M 12314,5470 V 5129"
       style="fill:none;stroke:#000000;stroke-width:49.066;stroke-linecap:butt;stroke-linejoin:miter;stroke-miterlimit:10;stroke-dasharray:none;stroke-opacity:1"
       id="path314" /><g
       id="g316" /><g
       id="g318"><text
         transform="matrix(0.70711,0.70711,0.70711,-0.70711,11750.516,3994.5156)"
         style="font-variant:normal;font-weight:normal;font-size:810.004px;font-family:TimesNewRomanPSMT;-inkscape-font-specification:TimesNewRomanPSMT;writing-mode:lr-tb;fill:#000000;fill-opacity:1;fill-rule:nonzero;stroke:none"
         id="text322"><tspan
           x="0 405.00183 674.73309"
           y="0"
           sodipodi:role="line"
           id="tspan320">8-9</tspan></text></g><path
       d="M 14346,5470 V 5129"
       style="fill:none;stroke:#000000;stroke-width:49.066;stroke-linecap:butt;stroke-linejoin:miter;stroke-miterlimit:10;stroke-dasharray:none;stroke-opacity:1"
       id="path324" /><g
       id="g326" /><g
       id="g328"><text
         transform="matrix(0.70711,0.70711,0.70711,-0.70711,13209.759,3421.759)"
         style="font-variant:normal;font-weight:normal;font-size:810.004px;font-family:TimesNewRomanPSMT;-inkscape-font-specification:TimesNewRomanPSMT;writing-mode:lr-tb;fill:#000000;fill-opacity:1;fill-rule:nonzero;stroke:none"
         id="text332"><tspan
           x="0 405.00183 810.00366 1079.7349 1484.7368"
           y="0"
           sodipodi:role="line"
           id="tspan330">10-11</tspan></text></g><path
       d="M 16378,5470 V 5129"
       style="fill:none;stroke:#000000;stroke-width:49.066;stroke-linecap:butt;stroke-linejoin:miter;stroke-miterlimit:10;stroke-dasharray:none;stroke-opacity:1"
       id="path334" /><g
       id="g336" /><g
       id="g338"><text
         transform="matrix(0.70711,0.70711,0.70711,-0.70711,15241.759,3421.759)"
         style="font-variant:normal;font-weight:normal;font-size:810.004px;font-family:TimesNewRomanPSMT;-inkscape-font-specification:TimesNewRomanPSMT;writing-mode:lr-tb;fill:#000000;fill-opacity:1;fill-rule:nonzero;stroke:none"
         id="text342"><tspan
           x="0 405.00183 810.00366 1079.7349 1484.7368"
           y="0"
           sodipodi:role="line"
           id="tspan340">12-13</tspan></text></g><path
       d="M 18410,5470 V 5129"
       style="fill:none;stroke:#000000;stroke-width:49.066;stroke-linecap:butt;stroke-linejoin:miter;stroke-miterlimit:10;stroke-dasharray:none;stroke-opacity:1"
       id="path344" /><g
       id="g346" /><g
       id="g348"><text
         transform="matrix(0.70711,0.70711,0.70711,-0.70711,17273.76,3421.759)"
         style="font-variant:normal;font-weight:normal;font-size:810.004px;font-family:TimesNewRomanPSMT;-inkscape-font-specification:TimesNewRomanPSMT;writing-mode:lr-tb;fill:#000000;fill-opacity:1;fill-rule:nonzero;stroke:none"
         id="text352"><tspan
           x="0 405.00183 810.00366 1079.7349 1484.7368"
           y="0"
           sodipodi:role="line"
           id="tspan350">14-15</tspan></text></g><path
       d="M 20442,5470 V 5129"
       style="fill:none;stroke:#000000;stroke-width:49.066;stroke-linecap:butt;stroke-linejoin:miter;stroke-miterlimit:10;stroke-dasharray:none;stroke-opacity:1"
       id="path354" /><g
       id="g356" /><g
       id="g358"><text
         transform="matrix(0.70711,0.70711,0.70711,-0.70711,19305.76,3421.759)"
         style="font-variant:normal;font-weight:normal;font-size:810.004px;font-family:TimesNewRomanPSMT;-inkscape-font-specification:TimesNewRomanPSMT;writing-mode:lr-tb;fill:#000000;fill-opacity:1;fill-rule:nonzero;stroke:none"
         id="text362"><tspan
           x="0 405.00183 810.00366 1079.7349 1484.7368"
           y="0"
           sodipodi:role="line"
           id="tspan360">16-17</tspan></text></g><path
       d="M 22474,5470 V 5129"
       style="fill:none;stroke:#000000;stroke-width:49.066;stroke-linecap:butt;stroke-linejoin:miter;stroke-miterlimit:10;stroke-dasharray:none;stroke-opacity:1"
       id="path364" /><g
       id="g366" /><g
       id="g368"><text
         transform="matrix(0.70711,0.70711,0.70711,-0.70711,21337.76,3421.759)"
         style="font-variant:normal;font-weight:normal;font-size:810.004px;font-family:TimesNewRomanPSMT;-inkscape-font-specification:TimesNewRomanPSMT;writing-mode:lr-tb;fill:#000000;fill-opacity:1;fill-rule:nonzero;stroke:none"
         id="text372"><tspan
           x="0 405.00183 810.00366 1079.7349 1484.7368"
           y="0"
           sodipodi:role="line"
           id="tspan370">18-19</tspan></text></g><path
       d="M 24506,5470 V 5129"
       style="fill:none;stroke:#000000;stroke-width:49.066;stroke-linecap:butt;stroke-linejoin:miter;stroke-miterlimit:10;stroke-dasharray:none;stroke-opacity:1"
       id="path374" /><g
       id="g376" /><g
       id="g378"><text
         transform="matrix(0.70711,0.70711,0.70711,-0.70711,23369.76,3421.759)"
         style="font-variant:normal;font-weight:normal;font-size:810.004px;font-family:TimesNewRomanPSMT;-inkscape-font-specification:TimesNewRomanPSMT;writing-mode:lr-tb;fill:#000000;fill-opacity:1;fill-rule:nonzero;stroke:none"
         id="text382"><tspan
           x="0 405.00183 810.00366 1079.7349 1484.7368"
           y="0"
           sodipodi:role="line"
           id="tspan380">20-21</tspan></text></g><path
       d="M 26537,5470 V 5129"
       style="fill:none;stroke:#000000;stroke-width:49.066;stroke-linecap:butt;stroke-linejoin:miter;stroke-miterlimit:10;stroke-dasharray:none;stroke-opacity:1"
       id="path384" /><g
       id="g386" /><g
       id="g388"><text
         transform="matrix(0.70711,0.70711,0.70711,-0.70711,25400.76,3421.759)"
         style="font-variant:normal;font-weight:normal;font-size:810.004px;font-family:TimesNewRomanPSMT;-inkscape-font-specification:TimesNewRomanPSMT;writing-mode:lr-tb;fill:#000000;fill-opacity:1;fill-rule:nonzero;stroke:none"
         id="text392"><tspan
           x="0 405.00183 810.00366 1079.7349 1484.7368"
           y="0"
           sodipodi:role="line"
           id="tspan390">22-23</tspan></text></g><path
       d="M 28569,5470 V 5129"
       style="fill:none;stroke:#000000;stroke-width:49.066;stroke-linecap:butt;stroke-linejoin:miter;stroke-miterlimit:10;stroke-dasharray:none;stroke-opacity:1"
       id="path394" /><g
       id="g396" /><g
       id="g398"><text
         transform="matrix(0.70711,0.70711,0.70711,-0.70711,27432.76,3421.759)"
         style="font-variant:normal;font-weight:normal;font-size:810.004px;font-family:TimesNewRomanPSMT;-inkscape-font-specification:TimesNewRomanPSMT;writing-mode:lr-tb;fill:#000000;fill-opacity:1;fill-rule:nonzero;stroke:none"
         id="text402"><tspan
           x="0 405.00183 810.00366 1079.7349 1484.7368"
           y="0"
           sodipodi:role="line"
           id="tspan400">24-25</tspan></text></g><path
       d="M 30601,5470 V 5129"
       style="fill:none;stroke:#000000;stroke-width:49.066;stroke-linecap:butt;stroke-linejoin:miter;stroke-miterlimit:10;stroke-dasharray:none;stroke-opacity:1"
       id="path404" /><g
       id="g406" /><g
       id="g408"><text
         transform="matrix(0.70711,0.70711,0.70711,-0.70711,29464.76,3421.759)"
         style="font-variant:normal;font-weight:normal;font-size:810.004px;font-family:TimesNewRomanPSMT;-inkscape-font-specification:TimesNewRomanPSMT;writing-mode:lr-tb;fill:#000000;fill-opacity:1;fill-rule:nonzero;stroke:none"
         id="text412"><tspan
           x="0 405.00183 810.00366 1079.7349 1484.7368"
           y="0"
           sodipodi:role="line"
           id="tspan410">26-27</tspan></text></g><g
       id="g414" /><g
       id="g416"><text
         transform="matrix(1,0,0,-1,15162.754,2126)"
         style="font-variant:normal;font-weight:normal;font-size:957px;font-family:TimesNewRomanPSMT;-inkscape-font-specification:TimesNewRomanPSMT;writing-mode:lr-tb;fill:#000000;fill-opacity:1;fill-rule:nonzero;stroke:none"
         id="text420"><tspan
           x="0 423.95099 902.45099 1326.402 1565.652 1830.741 2309.241 2548.491 3026.991 3505.491 3983.991"
           y="0"
           sodipodi:role="line"
           id="tspan418">age in 1975</tspan></text></g><path
       d="m 21947,19226 h 8900 v 2780 h -8900 z"
       style="fill:#ffffff;fill-opacity:1;fill-rule:nonzero;stroke:#000000;stroke-width:49.066;stroke-linecap:butt;stroke-linejoin:miter;stroke-miterlimit:10;stroke-dasharray:none;stroke-opacity:1"
       id="path422" /><path
       d="m 22315,21212 h 3190"
       style="fill:none;stroke:#000000;stroke-width:73.599;stroke-linecap:butt;stroke-linejoin:miter;stroke-miterlimit:10;stroke-dasharray:none;stroke-opacity:1"
       id="path424" /><path
       d="m 23640,21212 270,-270 270,270 -270,270 z"
       style="fill:#606060;fill-opacity:1;fill-rule:nonzero;stroke:#606060;stroke-width:73.599;stroke-linecap:butt;stroke-linejoin:miter;stroke-miterlimit:10;stroke-dasharray:none;stroke-opacity:1"
       id="path426" /><path
       d="m 22315,20020 h 491"
       style="fill:none;stroke:#000000;stroke-width:73.599;stroke-linecap:butt;stroke-linejoin:miter;stroke-miterlimit:10;stroke-dasharray:none;stroke-opacity:1"
       id="path428" /><path
       d="m 23051,20020 h 491"
       style="fill:none;stroke:#000000;stroke-width:73.599;stroke-linecap:butt;stroke-linejoin:miter;stroke-miterlimit:10;stroke-dasharray:none;stroke-opacity:1"
       id="path430" /><path
       d="m 23787,20020 h 491"
       style="fill:none;stroke:#000000;stroke-width:73.599;stroke-linecap:butt;stroke-linejoin:miter;stroke-miterlimit:10;stroke-dasharray:none;stroke-opacity:1"
       id="path432" /><path
       d="m 24523,20020 h 491"
       style="fill:none;stroke:#000000;stroke-width:73.599;stroke-linecap:butt;stroke-linejoin:miter;stroke-miterlimit:10;stroke-dasharray:none;stroke-opacity:1"
       id="path434" /><path
       d="m 25259,20020 h 246"
       style="fill:none;stroke:#000000;stroke-width:73.599;stroke-linecap:butt;stroke-linejoin:miter;stroke-miterlimit:10;stroke-dasharray:none;stroke-opacity:1"
       id="path436" /><path
       d="m 23719,20020 c 0,105.432 85.568,191 191,191 105.432,0 191,-85.568 191,-191 0,-105.432 -85.568,-191 -191,-191 -105.432,0 -191,85.568 -191,191"
       style="fill:#a0a0a0;fill-opacity:1;fill-rule:nonzero;stroke:#a0a0a0;stroke-width:73.599;stroke-linecap:butt;stroke-linejoin:miter;stroke-miterlimit:10;stroke-dasharray:none;stroke-opacity:1"
       id="path438" /><g
       id="g440"><text
         transform="matrix(1,0,0,-1,26016,20929)"
         style="font-variant:normal;font-weight:normal;font-size:810px;font-family:TimesNewRomanPSMT;-inkscape-font-specification:TimesNewRomanPSMT;writing-mode:lr-tb;fill:#000000;fill-opacity:1;fill-rule:nonzero;stroke:none"
         id="text444"><tspan
           x="0 224.37 629.37 1214.1899 1416.6899 1641.0601 2046.0601 2270.4299 2629.26 3034.26 3349.3501 3573.72 3798.0901"
           y="0"
           sodipodi:role="line"
           id="tspan442">low intensity</tspan></text></g><g
       id="g446"><text
         transform="matrix(1,0,0,-1,26016,19737)"
         style="font-variant:normal;font-weight:normal;font-size:810px;font-family:TimesNewRomanPSMT;-inkscape-font-specification:TimesNewRomanPSMT;writing-mode:lr-tb;fill:#000000;fill-opacity:1;fill-rule:nonzero;stroke:none"
         id="text450"><tspan
           x="0 405 629.37 1034.37 1439.37 1641.87 1866.24 2271.24 2495.6101 2854.4399 3259.4399 3574.53 3798.8999 4023.27"
           y="0"
           sodipodi:role="line"
           id="tspan448">high intensity</tspan></text></g><g
       id="g452"><text
         transform="matrix(1,0,0,-1,3647,980)"
         style="font-variant:normal;font-weight:normal;font-size:810px;font-family:TimesNewRomanPSMT;-inkscape-font-specification:TimesNewRomanPSMT;writing-mode:lr-tb;fill:#000000;fill-opacity:1;fill-rule:nonzero;stroke:none"
         id="text456"><tspan
           x="0 450.35999 855.35999 1260.36 1530.09 1888.92 2247.75 2472.1201 2674.6201 3259.4399 3753.54 4203.8999 4654.2598 4856.7598 5261.7598 5666.7598 6071.7598 6476.7598 6679.2598 7038.0898 7443.0898 7848.0898 8050.5898 8455.5898 8860.5898 9265.5898"
           y="0"
           sodipodi:role="line"
           id="tspan454">Source: NLSS 1995 and 2003</tspan></text></g><g
       id="g458" /><g
       id="g460"><text
         transform="matrix(1,0,0,-1,6390.3584,22772)"
         style="font-variant:normal;font-weight:normal;font-size:1079px;font-family:TimesNewRomanPSMT;-inkscape-font-specification:TimesNewRomanPSMT;writing-mode:lr-tb;fill:#000000;fill-opacity:1;fill-rule:nonzero;stroke:none"
         id="text464"><tspan
           x="0 599.92401 1077.921 1437.228 1915.225 2393.2219 2932.7219 3231.605 3709.6021 4249.1021 4727.0991 4996.8491 5536.3491 5895.6558 6165.4058 6765.3301 7243.3271 7782.8271 8322.3271 8621.21 9099.207 9368.957 10147.995 10687.495 10986.378 11464.375 11734.125 12033.008 12572.508 12842.258 13560.872 14038.869 14516.866 15056.366 15326.116 15865.616 16405.115 16674.865 17453.904 17993.404 18471.4 18741.15 19040.033 19579.533 19849.283 20388.783 20928.283 21467.783"
           y="0"
           sodipodi:role="line"
           id="tspan462">Percentage of People Able to Read by Age in 1975</tspan></text></g></g></svg>
